<svg width="9" height="9" viewBox="0 0 9 9" fill="none" xmlns="http://www.w3.org/2000/svg">
<path d="M8.29043 1.67696C8.55737 1.40997 8.55737 0.977055 8.29043 0.710003C8.02342 0.44302 7.5907 0.44302 7.32362 0.710003L6.93001 1.10368C5.87899 0.45437 4.53039 0.541541 3.67788 1.39404C3.18084 1.89116 2.92655 2.56624 2.96182 3.29486C2.99593 3.99852 3.2989 4.67025 3.81481 5.18624C3.81487 5.1863 3.81494 5.1863 3.81494 5.18637C4.36476 5.73654 4.42614 6.57011 3.95173 7.04459C3.47711 7.51915 2.64354 7.45768 2.09352 6.90771C1.5435 6.35754 1.48211 5.52385 1.95659 5.04922C2.22354 4.78224 2.22354 4.34932 1.95659 4.08227C1.68958 3.81529 1.25687 3.81529 0.989787 4.08227C0.137346 4.93484 0.0502564 6.28364 0.699465 7.33489L0.232434 7.80192C-0.0345093 8.06891 -0.0345093 8.50182 0.232434 8.76888C0.366282 8.90254 0.541213 8.96927 0.716144 8.96927C0.891144 8.96927 1.06601 8.90247 1.19951 8.76901L1.66682 8.30164C2.12606 8.5853 2.6419 8.72902 3.14858 8.72902C3.80134 8.72895 4.43865 8.4915 4.9186 8.01154C5.92595 7.00398 5.8647 5.30328 4.78223 4.21997C4.78202 4.21976 4.78189 4.21956 4.78168 4.21935C4.50647 3.9441 4.34514 3.59233 4.3275 3.22867C4.31116 2.89011 4.42375 2.58197 4.64476 2.361C5.11917 1.88644 5.95261 1.94784 6.5027 2.49773C6.50276 2.4978 6.50277 2.49787 6.50283 2.49794C6.5029 2.49801 6.50297 2.49801 6.50297 2.49801C7.05285 3.04818 7.11417 3.88174 6.63969 4.3563C6.37275 4.62328 6.37275 5.0562 6.63969 5.32325C6.77319 5.45677 6.94813 5.5235 7.12306 5.5235C7.29799 5.5235 7.47292 5.45677 7.60643 5.32325C8.45887 4.47061 8.54603 3.12181 7.89682 2.07063L8.29043 1.67696Z" fill="#00B2FF"/>
</svg>
