<svg width="15" height="14" viewBox="0 0 15 14" fill="none" xmlns="http://www.w3.org/2000/svg">
  <path d="M10.295 0.592814C9.9503 0.439074 9.54609 0.593908 9.39229 0.938712C9.23848 1.28352 9.39338 1.68773 9.73818 1.84147C11.7205 2.72556 13.0015 4.69889 13.0015 6.86875C13.0015 9.90227 10.5335 12.3702 7.49996 12.3702C4.46645 12.3702 1.99847 9.90227 1.99847 6.86875C1.99847 4.7101 3.27016 2.74087 5.23822 1.85199C5.58228 1.69661 5.73526 1.29165 5.57981 0.947599C5.42443 0.603478 5.01927 0.450558 4.67549 0.605939C2.21879 1.71555 0.631348 4.17382 0.631348 6.86868C0.631279 10.6561 3.71258 13.7374 7.49996 13.7374C11.2873 13.7374 14.3686 10.6561 14.3686 6.86875C14.3686 4.15987 12.7696 1.69641 10.295 0.592814Z" fill="#00B2FF"/>
</svg>
