<svg xmlns="http://www.w3.org/2000/svg" xmlns:xlink="http://www.w3.org/1999/xlink"><symbol id="icon-burger" viewBox="0 0 66 2">
  <rect width="66" height="2" fill="white"/>
</symbol><symbol id="icon-clock" viewBox="0 0 21 21">
  <path d="M3.14458 3.43258C3.15536 3.42003 3.16615 3.40748 3.17829 3.39573C3.19124 3.38265 3.20499 3.3709 3.21875 3.35915C4.43571 2.16713 5.93912 1.28513 7.57064 0.808221C7.93664 0.70141 8.32045 0.90809 8.42834 1.27018C8.53622 1.63227 8.32746 2.01252 7.96173 2.11933C6.75285 2.47288 5.62517 3.08384 4.66389 3.89961L5.12969 4.36077C5.39914 4.6278 5.39914 5.06066 5.12969 5.32768C4.99484 5.4612 4.81817 5.52796 4.64124 5.52796C4.46457 5.52796 4.28791 5.4612 4.15305 5.32768L3.68617 4.86546C2.43684 6.30367 1.69485 8.07408 1.55028 9.9609H2.21432C2.5957 9.9609 2.9048 10.2672 2.9048 10.6445C2.9048 11.0221 2.5957 11.3281 2.21432 11.3281H1.55028C1.69485 13.2152 2.43684 14.9853 3.68617 16.4235L4.15305 15.9613C4.42277 15.6945 4.85998 15.6945 5.12969 15.9613C5.39941 16.2283 5.39941 16.6612 5.12969 16.9282L4.66282 17.3904C6.11551 18.6273 7.90374 19.3619 9.80956 19.5053V18.8476C9.80956 18.47 10.1187 18.164 10.5 18.164C10.8814 18.164 11.1905 18.47 11.1905 18.8476V19.505C13.0963 19.3619 14.8846 18.6273 16.3373 17.3904L15.8704 16.9282C15.6007 16.6612 15.6007 16.2283 15.8704 15.9613C16.1401 15.6945 16.5773 15.6945 16.847 15.9613L17.3139 16.4235C18.5632 14.9853 19.3052 13.2149 19.4498 11.3281H18.7857C18.4044 11.3281 18.0953 11.0221 18.0953 10.6445C18.0953 10.2669 18.4044 9.9609 18.7857 9.9609H19.4498C19.3052 8.07408 18.5632 6.30367 17.3139 4.86546L16.847 5.32768C16.7122 5.4612 16.5355 5.52796 16.3588 5.52796C16.1819 5.52796 16.0052 5.4612 15.8704 5.32768C15.6009 5.06066 15.6009 4.6278 15.8704 4.36077L16.3362 3.89961C15.3749 3.08357 14.2472 2.47288 13.0383 2.11933C12.6726 2.01252 12.4638 1.63227 12.5717 1.27018C12.6796 0.90809 13.0632 0.701677 13.4294 0.808221C15.0607 1.28487 16.5635 2.1666 17.7802 3.35808C17.7945 3.3701 17.8086 3.38238 17.8218 3.39546C17.8336 3.40721 17.8442 3.4195 17.855 3.43178C19.7913 5.36667 20.8572 7.92587 20.8572 10.6445C20.8572 13.3628 19.7913 15.9218 17.8555 17.8564C17.8447 17.869 17.8339 17.8815 17.8218 17.8933C17.8099 17.9053 17.7975 17.9157 17.7851 17.9264C15.8307 19.8431 13.246 20.8984 10.5 20.8984C7.75431 20.8984 5.16961 19.8434 3.21551 17.9269C3.20284 17.916 3.19016 17.9053 3.17829 17.8933C3.16642 17.8818 3.1559 17.8692 3.14512 17.8572C1.20882 15.9223 0.142893 13.3631 0.142893 10.6445C0.142893 7.92614 1.20882 5.3672 3.14458 3.43258Z" fill="white"/>
</symbol><symbol id="icon-dash" viewBox="0 0 66 2">
  <rect width="66" height="2" fill="white"/>
  <rect width="66" height="2" fill="white"/>
</symbol><symbol id="icon-facebook" viewBox="0 0 27 26">
  <path d="M13.701 0C6.44113 0 0.5354 5.8314 0.5354 12.9999C0.5354 20.187 6.44113 25.9999 13.701 25.9999C20.9797 25.9999 26.8667 20.1685 26.8667 12.9999C26.8855 5.8314 20.9797 0 13.701 0ZM13.8891 4.9214C16.2589 4.9214 18.215 6.85282 18.1962 9.21138C18.1962 11.5885 16.2213 13.5014 13.8139 13.4642C11.4441 13.4271 9.54445 11.5142 9.54445 9.19281C9.54445 6.83425 11.4817 4.9214 13.8891 4.9214ZM18.7228 14.9499C18.7228 14.9871 18.704 15.0056 18.704 15.0428C18.6475 15.4142 18.4595 15.7114 18.1397 15.9156C17.9328 16.0456 17.7071 16.1756 17.4814 16.2871C16.9172 16.5656 16.3153 16.7885 15.6947 16.9371C15.6195 16.9556 15.6195 16.9556 15.6759 17.0113C16.0144 17.3456 16.3718 17.6985 16.7103 18.0328C17.1429 18.4599 17.5943 18.9056 18.0269 19.3328C18.6475 19.9456 18.4783 20.967 17.6883 21.3385C17.5567 21.4128 17.4062 21.4313 17.2558 21.4685C17.1805 21.4685 17.0865 21.4685 17.0112 21.4685C16.9924 21.4685 16.9736 21.4685 16.9736 21.4499C16.6727 21.4128 16.4282 21.2642 16.2025 21.0599C15.4502 20.317 14.679 19.5556 13.9267 18.8128C13.8703 18.7571 13.8703 18.7571 13.8139 18.8128C13.0427 19.5742 12.2904 20.317 11.5193 21.0785C11.3876 21.2085 11.256 21.3013 11.0867 21.3756C10.9739 21.4313 10.8422 21.4499 10.7294 21.4685C10.6541 21.4685 10.5789 21.4685 10.4849 21.4685C10.4472 21.4685 10.4284 21.4499 10.3908 21.4499C9.883 21.357 9.54445 21.0785 9.39399 20.5956C9.24352 20.1128 9.35637 19.6856 9.71373 19.3328C10.0335 19.017 10.3344 18.7199 10.6541 18.4042C11.1243 17.9399 11.5945 17.4756 12.0459 17.0299C12.1023 16.9742 12.1023 16.9742 12.0271 16.9556C12.0083 16.9556 11.9707 16.9371 11.9519 16.9371C11.1055 16.7328 10.3344 16.3985 9.60088 15.9528C9.16829 15.6742 8.9614 15.2656 9.01783 14.7642C9.11187 13.8356 10.1651 13.3342 10.9551 13.8356C11.1055 13.9285 11.2372 14.0028 11.4064 14.0771C12.2716 14.5042 13.1932 14.6899 14.1524 14.6342C14.6226 14.6156 15.0928 14.5228 15.563 14.3742C16.0144 14.2256 16.4094 14.0214 16.8232 13.7985C17.5003 13.4085 18.3842 13.7242 18.6475 14.4485C18.6852 14.5599 18.704 14.6528 18.7228 14.7642C18.7228 14.8199 18.7228 14.8756 18.7228 14.9499Z" fill="#CDCDCD"/>
</symbol><symbol id="icon-glasses" viewBox="0 0 28 10">
  <path d="M12.5938 0.0872517H1.34375C0.955383 0.0872517 0.640625 0.404219 0.640625 0.795311V3.62755C0.640625 7.14129 3.47949 10.0001 6.96875 10.0001C9.61261 10.0001 11.9527 8.36242 12.8835 5.89527C13.5905 5.57056 14.4095 5.57056 15.1165 5.89527C16.0473 8.36242 18.3874 9.9998 21.0312 9.9998C24.5205 9.9998 27.3594 7.14129 27.3594 3.62727V0.795034C27.3594 0.403942 27.0446 0.0869751 26.6562 0.0869751H15.4062C15.0179 0.0869751 14.7031 0.403942 14.7031 0.795034V1.50309H13.2969V0.795034C13.2969 0.404219 12.9821 0.0872517 12.5938 0.0872517ZM6.96875 8.58396C4.25485 8.58396 2.04688 6.36049 2.04688 3.62755V1.50337H11.8906V3.62755C11.8906 6.36768 9.69446 8.58396 6.96875 8.58396ZM16.1094 1.50337H25.9531V3.62755C25.9531 6.36049 23.7451 8.58396 21.0312 8.58396C18.2987 8.58396 16.1094 6.36104 16.1094 3.62755V1.50337ZM14.7031 2.91949V3.62755C14.7031 3.85379 14.716 4.07921 14.7394 4.30297C14.2508 4.21308 13.7492 4.21308 13.2606 4.30297C13.284 4.07921 13.2969 3.85379 13.2969 3.62755V2.91949H14.7031Z" fill="#00B2FF"/>
</symbol><symbol id="icon-hat" viewBox="0 0 36 19">
  <path d="M33.8906 14.0066H31.1548C29.7125 9.85946 27.6199 2.58774 23.8291 0.529671C21.9331 -0.498398 20.141 0.219618 19.4669 1.67833C19.1802 2.29844 18.6075 2.62453 18 2.62453C17.3842 2.62453 16.8162 2.29124 16.5331 1.67888C15.8829 0.269957 14.1336 -0.513887 12.3041 0.380314C8.45261 2.26386 6.29874 9.8282 4.84525 14.0066H2.10938C0.944 14.0066 0 14.9569 0 16.1308C0 17.3018 0.946198 18.2549 2.10938 18.2549H33.8906C35.056 18.2549 36 17.3043 36 16.1308C36 14.9594 35.0538 14.0066 33.8906 14.0066ZM7.31525 11.1743H15.1875C15.5759 11.1743 15.8906 10.8571 15.8906 10.4663C15.8906 10.0752 15.5759 9.75823 15.1875 9.75823H7.80688C9.92642 3.86225 11.9064 2.14908 12.9183 1.65427C14.0221 1.11493 14.9307 1.56631 15.2581 2.27603C15.7739 3.39178 16.8409 4.04065 18 4.04065C19.1618 4.04065 20.2275 3.38929 20.7419 2.27603C21.0789 1.54612 21.9922 1.14203 23.1619 1.77624C24.1784 2.32831 26.1524 4.09845 28.1928 9.75823H20.8125C20.4241 9.75823 20.1094 10.0752 20.1094 10.4663C20.1094 10.8574 20.4241 11.1743 20.8125 11.1743H28.685C29.0404 12.2066 29.4096 13.2717 29.665 14.0066H6.33527C6.58987 13.2736 6.95819 12.211 7.31525 11.1743ZM33.8906 16.8388H2.10938C1.72156 16.8388 1.40625 16.521 1.40625 16.1308C1.40625 15.7397 1.72101 15.4227 2.10938 15.4227H33.8906C34.2784 15.4227 34.5938 15.7402 34.5938 16.1308C34.5938 16.5216 34.2787 16.8388 33.8906 16.8388Z" fill="#00B2FF"/>
</symbol><symbol id="icon-logo" viewBox="0 0 34 30">
<path d="M2.8 24.2663C3.9284 24.2663 4.88173 24.9934 5.24053 25.9996H15.4412L20.3873 21.0536C20.5493 20.8906 20.7703 20.7997 21 20.7997H30.1745L32.2667 18.7076V11.6253L25.5803 4.93905C25.2415 5.10198 24.8671 5.19991 24.4667 5.19991C23.0332 5.19991 21.8667 4.0334 21.8667 2.59996C21.8667 1.16651 23.0332 0 24.4667 0C25.9001 0 27.0667 1.16651 27.0667 2.59996C27.0667 3.00035 26.9687 3.37474 26.8058 3.7136L33.7461 10.6538C33.909 10.8158 34 11.0359 34 11.2665V19.0663C34 19.2969 33.909 19.517 33.7461 19.6791L31.1461 22.279C30.984 22.442 30.763 22.533 30.5333 22.533H21.3588L16.4127 27.4789C16.2507 27.6419 16.0297 27.7329 15.8 27.7329H5.24053C4.88173 28.7391 3.9284 29.4662 2.8 29.4662C1.36653 29.4662 0.199997 28.2997 0.199997 26.8662C0.199997 25.4328 1.36653 24.2663 2.8 24.2663ZM24.4667 1.7333C23.9891 1.7333 23.6 2.12156 23.6 2.59996C23.6 3.07835 23.9891 3.46661 24.4667 3.46661C24.9442 3.46661 25.3333 3.07835 25.3333 2.59996C25.3333 2.12156 24.9442 1.7333 24.4667 1.7333ZM2.8 27.7329C3.27753 27.7329 3.66666 27.3446 3.66666 26.8662C3.66666 26.3878 3.27753 25.9996 2.8 25.9996C2.32246 25.9996 1.93333 26.3878 1.93333 26.8662C1.93333 27.3446 2.32246 27.7329 2.8 27.7329Z" fill="#00B2FF"/>
</symbol><symbol id="icon-mail" viewBox="0 0 15 12">
  <path d="M9.98271 5.88195L14.6295 1.84715C14.8457 1.65683 14.8654 1.33328 14.6688 1.12012C14.4723 0.91077 14.1381 0.891738 13.9179 1.08206L7.50992 6.65085L6.25977 5.56982C6.25584 5.56602 6.2519 5.56221 6.2519 5.5584C6.22439 5.53176 6.19687 5.50892 6.16542 5.48608L1.07831 1.07825C0.858157 0.887931 0.523996 0.906963 0.327431 1.12012C0.130866 1.33328 0.150522 1.65683 0.370675 1.84715L5.07251 5.91621L0.390332 10.1604C0.178041 10.3545 0.166248 10.678 0.366744 10.8874C0.472889 10.994 0.614416 11.0511 0.755943 11.0511C0.885676 11.0511 1.01541 11.0054 1.11762 10.914L5.87057 6.60898L7.16004 7.72426C7.26225 7.8118 7.38805 7.85367 7.51385 7.85367C7.63965 7.85367 7.76939 7.808 7.86767 7.72045L9.19252 6.57091L13.9179 10.9178C14.0202 11.013 14.1538 11.0587 14.2836 11.0587C14.4251 11.0587 14.5627 11.0054 14.6688 10.8988C14.8693 10.6933 14.8615 10.3659 14.6492 10.1718L9.98271 5.88195Z" fill="#00B2FF"/>
</symbol><symbol id="icon-ok" viewBox="0 0 27 26">
  <path d="M13.701 0C6.44113 0 0.5354 5.8314 0.5354 12.9999C0.5354 20.187 6.44113 25.9999 13.701 25.9999C20.9797 25.9999 26.8667 20.1685 26.8667 12.9999C26.8855 5.8314 20.9797 0 13.701 0ZM13.8891 4.9214C16.2589 4.9214 18.215 6.85282 18.1962 9.21138C18.1962 11.5885 16.2213 13.5014 13.8139 13.4642C11.4441 13.4271 9.54445 11.5142 9.54445 9.19281C9.54445 6.83425 11.4817 4.9214 13.8891 4.9214ZM18.7228 14.9499C18.7228 14.9871 18.704 15.0056 18.704 15.0428C18.6475 15.4142 18.4595 15.7114 18.1397 15.9156C17.9328 16.0456 17.7071 16.1756 17.4814 16.2871C16.9172 16.5656 16.3153 16.7885 15.6947 16.9371C15.6195 16.9556 15.6195 16.9556 15.6759 17.0113C16.0144 17.3456 16.3718 17.6985 16.7103 18.0328C17.1429 18.4599 17.5943 18.9056 18.0269 19.3328C18.6475 19.9456 18.4783 20.967 17.6883 21.3385C17.5567 21.4128 17.4062 21.4313 17.2558 21.4685C17.1805 21.4685 17.0865 21.4685 17.0112 21.4685C16.9924 21.4685 16.9736 21.4685 16.9736 21.4499C16.6727 21.4128 16.4282 21.2642 16.2025 21.0599C15.4502 20.317 14.679 19.5556 13.9267 18.8128C13.8703 18.7571 13.8703 18.7571 13.8139 18.8128C13.0427 19.5742 12.2904 20.317 11.5193 21.0785C11.3876 21.2085 11.256 21.3013 11.0867 21.3756C10.9739 21.4313 10.8422 21.4499 10.7294 21.4685C10.6541 21.4685 10.5789 21.4685 10.4849 21.4685C10.4472 21.4685 10.4284 21.4499 10.3908 21.4499C9.883 21.357 9.54445 21.0785 9.39399 20.5956C9.24352 20.1128 9.35637 19.6856 9.71373 19.3328C10.0335 19.017 10.3344 18.7199 10.6541 18.4042C11.1243 17.9399 11.5945 17.4756 12.0459 17.0299C12.1023 16.9742 12.1023 16.9742 12.0271 16.9556C12.0083 16.9556 11.9707 16.9371 11.9519 16.9371C11.1055 16.7328 10.3344 16.3985 9.60088 15.9528C9.16829 15.6742 8.9614 15.2656 9.01783 14.7642C9.11187 13.8356 10.1651 13.3342 10.9551 13.8356C11.1055 13.9285 11.2372 14.0028 11.4064 14.0771C12.2716 14.5042 13.1932 14.6899 14.1524 14.6342C14.6226 14.6156 15.0928 14.5228 15.563 14.3742C16.0144 14.2256 16.4094 14.0214 16.8232 13.7985C17.5003 13.4085 18.3842 13.7242 18.6475 14.4485C18.6852 14.5599 18.704 14.6528 18.7228 14.7642C18.7228 14.8199 18.7228 14.8756 18.7228 14.9499Z" fill="#CDCDCD"/>
</symbol><symbol id="icon-people" viewBox="0 0 15 14">
  <path d="M10.295 0.592814C9.9503 0.439074 9.54609 0.593908 9.39229 0.938712C9.23848 1.28352 9.39338 1.68773 9.73818 1.84147C11.7205 2.72556 13.0015 4.69889 13.0015 6.86875C13.0015 9.90227 10.5335 12.3702 7.49996 12.3702C4.46645 12.3702 1.99847 9.90227 1.99847 6.86875C1.99847 4.7101 3.27016 2.74087 5.23822 1.85199C5.58228 1.69661 5.73526 1.29165 5.57981 0.947599C5.42443 0.603478 5.01927 0.450558 4.67549 0.605939C2.21879 1.71555 0.631348 4.17382 0.631348 6.86868C0.631279 10.6561 3.71258 13.7374 7.49996 13.7374C11.2873 13.7374 14.3686 10.6561 14.3686 6.86875C14.3686 4.15987 12.7696 1.69641 10.295 0.592814Z" fill="#00B2FF"/>
</symbol><symbol id="icon-phone" viewBox="0 0 9 9">
  <path d="M8.99215 7.94018C8.65354 5.95709 7.71762 4.15255 6.2795 2.71652C4.84138 1.28049 3.03421 0.345932 1.04824 0.00781895C0.770506 -0.0415684 0.507992 0.148383 0.458532 0.425712C0.412878 0.70684 0.599301 0.968972 0.880838 1.01836C2.65376 1.31848 4.27069 2.15807 5.55663 3.43834C6.84257 4.72241 7.67957 6.33699 7.98013 8.10734C8.02199 8.35808 8.23884 8.53283 8.48614 8.53283C8.51658 8.53283 8.54321 8.52903 8.57365 8.52523C8.85138 8.48344 9.0416 8.21751 8.99215 7.94018Z" fill="#00B2FF"/>
</symbol><symbol id="icon-plus" viewBox="0 0 6 9">
<path d="M1 8.5L5 4.5L1 0.5" stroke="white" stroke-linejoin="round"/>
</symbol><symbol id="icon-price" viewBox="0 0 9 9">
<path d="M8.29043 1.67696C8.55737 1.40997 8.55737 0.977055 8.29043 0.710003C8.02342 0.44302 7.5907 0.44302 7.32362 0.710003L6.93001 1.10368C5.87899 0.45437 4.53039 0.541541 3.67788 1.39404C3.18084 1.89116 2.92655 2.56624 2.96182 3.29486C2.99593 3.99852 3.2989 4.67025 3.81481 5.18624C3.81487 5.1863 3.81494 5.1863 3.81494 5.18637C4.36476 5.73654 4.42614 6.57011 3.95173 7.04459C3.47711 7.51915 2.64354 7.45768 2.09352 6.90771C1.5435 6.35754 1.48211 5.52385 1.95659 5.04922C2.22354 4.78224 2.22354 4.34932 1.95659 4.08227C1.68958 3.81529 1.25687 3.81529 0.989787 4.08227C0.137346 4.93484 0.0502564 6.28364 0.699465 7.33489L0.232434 7.80192C-0.0345093 8.06891 -0.0345093 8.50182 0.232434 8.76888C0.366282 8.90254 0.541213 8.96927 0.716144 8.96927C0.891144 8.96927 1.06601 8.90247 1.19951 8.76901L1.66682 8.30164C2.12606 8.5853 2.6419 8.72902 3.14858 8.72902C3.80134 8.72895 4.43865 8.4915 4.9186 8.01154C5.92595 7.00398 5.8647 5.30328 4.78223 4.21997C4.78202 4.21976 4.78189 4.21956 4.78168 4.21935C4.50647 3.9441 4.34514 3.59233 4.3275 3.22867C4.31116 2.89011 4.42375 2.58197 4.64476 2.361C5.11917 1.88644 5.95261 1.94784 6.5027 2.49773C6.50276 2.4978 6.50277 2.49787 6.50283 2.49794C6.5029 2.49801 6.50297 2.49801 6.50297 2.49801C7.05285 3.04818 7.11417 3.88174 6.63969 4.3563C6.37275 4.62328 6.37275 5.0562 6.63969 5.32325C6.77319 5.45677 6.94813 5.5235 7.12306 5.5235C7.29799 5.5235 7.47292 5.45677 7.60643 5.32325C8.45887 4.47061 8.54603 3.12181 7.89682 2.07063L8.29043 1.67696Z" fill="#00B2FF"/>
</symbol><symbol id="icon-vk" viewBox="0 0 27 26">
  <path d="M19.475 15.1271C18.3662 14.1029 18.287 14.1029 19.2374 12.9211C20.4254 11.4243 22.0095 9.53349 20.5838 9.53349H17.9701C17.4949 9.53349 17.4157 9.84862 17.2573 10.2425C16.6237 11.7394 15.3565 13.709 14.8812 13.3938C14.406 13.0787 14.6436 11.897 14.6436 10.0062C14.7228 9.76984 14.6436 9.53349 14.4852 9.37592C14.3268 9.21836 14.0892 9.06079 13.8516 9.06079C13.4556 8.98201 13.0596 8.90323 12.6636 8.90323C11.1587 8.90323 10.1291 9.53349 10.6835 9.61227C11.7131 9.76984 11.6339 11.9758 11.3963 12.9211C11.0003 14.5756 9.41624 11.6606 8.70342 10.1638C8.62421 9.76984 8.3074 9.53349 7.91139 9.53349H5.85212C5.53531 9.53349 5.2977 9.61227 5.2977 9.84862C5.2977 10.2425 7.27777 14.1029 9.09943 16.0725C10.9211 17.9632 12.7428 17.8057 14.01 17.8057C14.1684 17.8057 14.3268 17.7269 14.406 17.6481C14.4852 17.5693 14.5644 17.4118 14.5644 17.2542C14.5644 15.9937 15.0396 15.3634 15.9109 16.23C16.8613 17.1754 17.0989 17.8057 18.287 17.8057H20.4254C20.9799 17.8057 21.1383 17.6481 21.1383 17.4118C21.2175 16.8603 20.267 15.8361 19.475 15.1271ZM13.8516 0.000789162C21.2175 0.158354 27.0785 6.06705 26.9993 13.2363C26.9201 20.4055 20.8214 26.0778 13.4556 25.9991C6.01052 25.9203 0.0703125 20.1691 0.0703125 12.9999C0.149515 5.75192 6.32733 -0.0779935 13.8516 0.000789162Z" fill="#CDCDCD"/>
</symbol></svg>