<svg width="21" height="21" viewBox="0 0 21 21" fill="none" xmlns="http://www.w3.org/2000/svg">
  <path d="M3.14458 3.43258C3.15536 3.42003 3.16615 3.40748 3.17829 3.39573C3.19124 3.38265 3.20499 3.3709 3.21875 3.35915C4.43571 2.16713 5.93912 1.28513 7.57064 0.808221C7.93664 0.70141 8.32045 0.90809 8.42834 1.27018C8.53622 1.63227 8.32746 2.01252 7.96173 2.11933C6.75285 2.47288 5.62517 3.08384 4.66389 3.89961L5.12969 4.36077C5.39914 4.6278 5.39914 5.06066 5.12969 5.32768C4.99484 5.4612 4.81817 5.52796 4.64124 5.52796C4.46457 5.52796 4.28791 5.4612 4.15305 5.32768L3.68617 4.86546C2.43684 6.30367 1.69485 8.07408 1.55028 9.9609H2.21432C2.5957 9.9609 2.9048 10.2672 2.9048 10.6445C2.9048 11.0221 2.5957 11.3281 2.21432 11.3281H1.55028C1.69485 13.2152 2.43684 14.9853 3.68617 16.4235L4.15305 15.9613C4.42277 15.6945 4.85998 15.6945 5.12969 15.9613C5.39941 16.2283 5.39941 16.6612 5.12969 16.9282L4.66282 17.3904C6.11551 18.6273 7.90374 19.3619 9.80956 19.5053V18.8476C9.80956 18.47 10.1187 18.164 10.5 18.164C10.8814 18.164 11.1905 18.47 11.1905 18.8476V19.505C13.0963 19.3619 14.8846 18.6273 16.3373 17.3904L15.8704 16.9282C15.6007 16.6612 15.6007 16.2283 15.8704 15.9613C16.1401 15.6945 16.5773 15.6945 16.847 15.9613L17.3139 16.4235C18.5632 14.9853 19.3052 13.2149 19.4498 11.3281H18.7857C18.4044 11.3281 18.0953 11.0221 18.0953 10.6445C18.0953 10.2669 18.4044 9.9609 18.7857 9.9609H19.4498C19.3052 8.07408 18.5632 6.30367 17.3139 4.86546L16.847 5.32768C16.7122 5.4612 16.5355 5.52796 16.3588 5.52796C16.1819 5.52796 16.0052 5.4612 15.8704 5.32768C15.6009 5.06066 15.6009 4.6278 15.8704 4.36077L16.3362 3.89961C15.3749 3.08357 14.2472 2.47288 13.0383 2.11933C12.6726 2.01252 12.4638 1.63227 12.5717 1.27018C12.6796 0.90809 13.0632 0.701677 13.4294 0.808221C15.0607 1.28487 16.5635 2.1666 17.7802 3.35808C17.7945 3.3701 17.8086 3.38238 17.8218 3.39546C17.8336 3.40721 17.8442 3.4195 17.855 3.43178C19.7913 5.36667 20.8572 7.92587 20.8572 10.6445C20.8572 13.3628 19.7913 15.9218 17.8555 17.8564C17.8447 17.869 17.8339 17.8815 17.8218 17.8933C17.8099 17.9053 17.7975 17.9157 17.7851 17.9264C15.8307 19.8431 13.246 20.8984 10.5 20.8984C7.75431 20.8984 5.16961 19.8434 3.21551 17.9269C3.20284 17.916 3.19016 17.9053 3.17829 17.8933C3.16642 17.8818 3.1559 17.8692 3.14512 17.8572C1.20882 15.9223 0.142893 13.3631 0.142893 10.6445C0.142893 7.92614 1.20882 5.3672 3.14458 3.43258Z" fill="white"/>
</svg>
