<svg width="28" height="10" viewBox="0 0 28 10" fill="none" xmlns="http://www.w3.org/2000/svg">
  <path d="M12.5938 0.0872517H1.34375C0.955383 0.0872517 0.640625 0.404219 0.640625 0.795311V3.62755C0.640625 7.14129 3.47949 10.0001 6.96875 10.0001C9.61261 10.0001 11.9527 8.36242 12.8835 5.89527C13.5905 5.57056 14.4095 5.57056 15.1165 5.89527C16.0473 8.36242 18.3874 9.9998 21.0312 9.9998C24.5205 9.9998 27.3594 7.14129 27.3594 3.62727V0.795034C27.3594 0.403942 27.0446 0.0869751 26.6562 0.0869751H15.4062C15.0179 0.0869751 14.7031 0.403942 14.7031 0.795034V1.50309H13.2969V0.795034C13.2969 0.404219 12.9821 0.0872517 12.5938 0.0872517ZM6.96875 8.58396C4.25485 8.58396 2.04688 6.36049 2.04688 3.62755V1.50337H11.8906V3.62755C11.8906 6.36768 9.69446 8.58396 6.96875 8.58396ZM16.1094 1.50337H25.9531V3.62755C25.9531 6.36049 23.7451 8.58396 21.0312 8.58396C18.2987 8.58396 16.1094 6.36104 16.1094 3.62755V1.50337ZM14.7031 2.91949V3.62755C14.7031 3.85379 14.716 4.07921 14.7394 4.30297C14.2508 4.21308 13.7492 4.21308 13.2606 4.30297C13.284 4.07921 13.2969 3.85379 13.2969 3.62755V2.91949H14.7031Z" fill="#00B2FF"/>
</svg>
