<svg width="34" height="30" viewBox="0 0 34 30" fill="none" xmlns="http://www.w3.org/2000/svg">
<path d="M2.8 24.2663C3.9284 24.2663 4.88173 24.9934 5.24053 25.9996H15.4412L20.3873 21.0536C20.5493 20.8906 20.7703 20.7997 21 20.7997H30.1745L32.2667 18.7076V11.6253L25.5803 4.93905C25.2415 5.10198 24.8671 5.19991 24.4667 5.19991C23.0332 5.19991 21.8667 4.0334 21.8667 2.59996C21.8667 1.16651 23.0332 0 24.4667 0C25.9001 0 27.0667 1.16651 27.0667 2.59996C27.0667 3.00035 26.9687 3.37474 26.8058 3.7136L33.7461 10.6538C33.909 10.8158 34 11.0359 34 11.2665V19.0663C34 19.2969 33.909 19.517 33.7461 19.6791L31.1461 22.279C30.984 22.442 30.763 22.533 30.5333 22.533H21.3588L16.4127 27.4789C16.2507 27.6419 16.0297 27.7329 15.8 27.7329H5.24053C4.88173 28.7391 3.9284 29.4662 2.8 29.4662C1.36653 29.4662 0.199997 28.2997 0.199997 26.8662C0.199997 25.4328 1.36653 24.2663 2.8 24.2663ZM24.4667 1.7333C23.9891 1.7333 23.6 2.12156 23.6 2.59996C23.6 3.07835 23.9891 3.46661 24.4667 3.46661C24.9442 3.46661 25.3333 3.07835 25.3333 2.59996C25.3333 2.12156 24.9442 1.7333 24.4667 1.7333ZM2.8 27.7329C3.27753 27.7329 3.66666 27.3446 3.66666 26.8662C3.66666 26.3878 3.27753 25.9996 2.8 25.9996C2.32246 25.9996 1.93333 26.3878 1.93333 26.8662C1.93333 27.3446 2.32246 27.7329 2.8 27.7329Z" fill="#00B2FF"/>
</svg>
