<svg width="1411" height="52" viewBox="0 0 1411 52" fill="none" xmlns="http://www.w3.org/2000/svg">
<path d="M1009.77 25.016H1013.22V21.48H1014.38V25.016H1017.83V26.168H1014.38V29.704H1013.22V26.168H1009.77V25.016ZM1020.58 31L1025.47 20.952H1019.7V19.8H1026.77V20.84L1021.89 31H1020.58ZM1045.72 34.52C1044.78 34.4133 1043.93 34.1787 1043.16 33.816C1042.4 33.464 1041.75 32.9787 1041.22 32.36C1040.69 31.752 1040.27 31.0107 1039.97 30.136C1039.69 29.2613 1039.54 28.2533 1039.54 27.112C1039.54 25.992 1039.69 24.9947 1039.97 24.12C1040.26 23.2347 1040.67 22.4827 1041.19 21.864C1041.72 21.2347 1042.36 20.7333 1043.09 20.36C1043.84 19.9867 1044.66 19.736 1045.56 19.608L1045.73 20.648C1044.93 20.8187 1044.23 21.0587 1043.62 21.368C1043.01 21.6773 1042.5 22.088 1042.09 22.6C1041.67 23.112 1041.35 23.736 1041.14 24.472C1040.93 25.208 1040.82 26.088 1040.82 27.112C1040.82 28.1467 1040.95 29.0427 1041.21 29.8C1041.47 30.5467 1041.83 31.176 1042.29 31.688C1042.75 32.2 1043.29 32.5947 1043.91 32.872C1044.54 33.16 1045.22 33.352 1045.94 33.448L1045.72 34.52ZM1056.66 27.512H1054.5V31H1053.25V27.512H1048.08V26.584L1053.44 19.8H1054.5V26.456H1056.66V27.512ZM1053.25 21.8L1049.55 26.456H1053.25V21.8ZM1057.94 23.176C1057.94 22.6853 1058.02 22.2267 1058.18 21.8C1058.34 21.3627 1058.58 20.984 1058.9 20.664C1059.24 20.3333 1059.64 20.0773 1060.12 19.896C1060.6 19.704 1061.16 19.608 1061.8 19.608C1062.4 19.608 1062.93 19.704 1063.4 19.896C1063.87 20.088 1064.26 20.36 1064.58 20.712C1064.92 21.0533 1065.17 21.4747 1065.34 21.976C1065.51 22.4667 1065.59 23.016 1065.59 23.624C1065.59 24.8187 1065.44 25.8693 1065.14 26.776C1064.85 27.6827 1064.43 28.4507 1063.9 29.08C1063.36 29.7093 1062.73 30.2 1061.99 30.552C1061.27 30.904 1060.48 31.1173 1059.62 31.192L1059.38 30.184C1060.09 30.1093 1060.72 29.9387 1061.27 29.672C1061.83 29.4053 1062.31 29.064 1062.71 28.648C1063.12 28.232 1063.45 27.752 1063.7 27.208C1063.96 26.664 1064.14 26.0827 1064.23 25.464C1064.06 25.6453 1063.89 25.8 1063.7 25.928C1063.53 26.0453 1063.34 26.1413 1063.13 26.216C1062.92 26.2907 1062.68 26.344 1062.42 26.376C1062.17 26.408 1061.88 26.424 1061.54 26.424C1061.05 26.424 1060.59 26.3493 1060.15 26.2C1059.72 26.0507 1059.33 25.8373 1059 25.56C1058.68 25.272 1058.42 24.9307 1058.23 24.536C1058.04 24.1307 1057.94 23.6773 1057.94 23.176ZM1059.26 23.048C1059.26 23.816 1059.49 24.392 1059.94 24.776C1060.41 25.16 1061.03 25.352 1061.8 25.352C1062.41 25.352 1062.93 25.2613 1063.37 25.08C1063.82 24.888 1064.13 24.6533 1064.31 24.376C1064.33 24.2267 1064.34 24.1093 1064.34 24.024C1064.34 23.928 1064.34 23.8213 1064.34 23.704C1064.34 23.3307 1064.29 22.9627 1064.18 22.6C1064.09 22.2373 1063.93 21.912 1063.72 21.624C1063.51 21.336 1063.23 21.1067 1062.89 20.936C1062.56 20.7547 1062.16 20.664 1061.69 20.664C1060.92 20.664 1060.32 20.872 1059.9 21.288C1059.47 21.704 1059.26 22.2907 1059.26 23.048ZM1070.66 30.072C1071.06 30.072 1071.44 30.024 1071.78 29.928C1072.12 29.8213 1072.41 29.6667 1072.64 29.464C1072.89 29.2507 1073.07 28.9893 1073.2 28.68C1073.34 28.3707 1073.41 28.008 1073.41 27.592C1073.41 26.824 1073.13 26.2427 1072.58 25.848C1072.03 25.4427 1071.29 25.24 1070.34 25.24L1068.83 25.32V19.8H1074.32V20.952H1070.03V24.2L1070.83 24.168C1072.02 24.168 1072.95 24.456 1073.63 25.032C1074.32 25.608 1074.66 26.4293 1074.66 27.496C1074.66 28.0933 1074.55 28.6213 1074.34 29.08C1074.14 29.5387 1073.85 29.928 1073.49 30.248C1073.13 30.5573 1072.7 30.792 1072.19 30.952C1071.7 31.112 1071.17 31.192 1070.58 31.192C1070.26 31.192 1069.95 31.1653 1069.67 31.112C1069.38 31.0693 1069.12 31.016 1068.88 30.952C1068.65 30.8773 1068.44 30.8027 1068.26 30.728C1068.09 30.6427 1067.97 30.568 1067.89 30.504L1068.4 29.464C1068.58 29.5707 1068.86 29.6987 1069.23 29.848C1069.61 29.9973 1070.08 30.072 1070.66 30.072ZM1078.14 19.608C1079.08 19.7147 1079.93 19.9493 1080.68 20.312C1081.45 20.664 1082.1 21.1493 1082.64 21.768C1083.17 22.3867 1083.58 23.1333 1083.87 24.008C1084.17 24.8827 1084.32 25.8853 1084.32 27.016C1084.32 28.136 1084.17 29.1387 1083.87 30.024C1083.58 30.8987 1083.17 31.6453 1082.64 32.264C1082.11 32.8933 1081.48 33.3947 1080.75 33.768C1080.01 34.1413 1079.2 34.392 1078.3 34.52L1078.12 33.48C1078.92 33.3093 1079.63 33.0693 1080.24 32.76C1080.84 32.4507 1081.36 32.04 1081.77 31.528C1082.19 31.016 1082.5 30.392 1082.72 29.656C1082.93 28.92 1083.04 28.04 1083.04 27.016C1083.04 25.9813 1082.9 25.0907 1082.64 24.344C1082.38 23.5867 1082.02 22.952 1081.56 22.44C1081.11 21.928 1080.56 21.5333 1079.93 21.256C1079.31 20.968 1078.64 20.776 1077.92 20.68L1078.14 19.608ZM1096.22 25.4C1096.22 24.4933 1096.3 23.6827 1096.46 22.968C1096.62 22.2427 1096.86 21.6347 1097.18 21.144C1097.5 20.6427 1097.91 20.264 1098.4 20.008C1098.89 19.7413 1099.47 19.608 1100.14 19.608C1100.86 19.608 1101.46 19.736 1101.95 19.992C1102.45 20.248 1102.86 20.6213 1103.17 21.112C1103.48 21.6027 1103.7 22.2107 1103.84 22.936C1103.98 23.6507 1104.05 24.472 1104.05 25.4C1104.05 26.3067 1103.97 27.1227 1103.81 27.848C1103.65 28.5627 1103.41 29.1707 1103.09 29.672C1102.77 30.1627 1102.36 30.5413 1101.87 30.808C1101.38 31.064 1100.8 31.192 1100.13 31.192C1099.42 31.192 1098.82 31.0533 1098.32 30.776C1097.83 30.488 1097.42 30.088 1097.1 29.576C1096.79 29.064 1096.57 28.456 1096.43 27.752C1096.29 27.0373 1096.22 26.2533 1096.22 25.4ZM1102.74 25.4C1102.74 24.8347 1102.7 24.296 1102.64 23.784L1097.89 28.12C1098.07 28.728 1098.34 29.2133 1098.7 29.576C1099.07 29.9387 1099.54 30.12 1100.13 30.12C1101.07 30.12 1101.73 29.7307 1102.13 28.952C1102.53 28.1733 1102.74 26.9893 1102.74 25.4ZM1097.55 25.4C1097.55 25.6667 1097.56 25.9227 1097.57 26.168C1097.59 26.4133 1097.61 26.6533 1097.63 26.888L1102.4 22.568C1102.22 21.992 1101.95 21.5333 1101.58 21.192C1101.23 20.8507 1100.75 20.68 1100.14 20.68C1099.19 20.68 1098.52 21.0747 1098.13 21.864C1097.74 22.6427 1097.55 23.8213 1097.55 25.4ZM1105.82 25.4C1105.82 24.4933 1105.9 23.6827 1106.06 22.968C1106.22 22.2427 1106.46 21.6347 1106.78 21.144C1107.1 20.6427 1107.5 20.264 1107.99 20.008C1108.48 19.7413 1109.07 19.608 1109.74 19.608C1110.45 19.608 1111.05 19.736 1111.55 19.992C1112.05 20.248 1112.45 20.6213 1112.76 21.112C1113.07 21.6027 1113.29 22.2107 1113.43 22.936C1113.57 23.6507 1113.64 24.472 1113.64 25.4C1113.64 26.3067 1113.56 27.1227 1113.4 27.848C1113.24 28.5627 1113 29.1707 1112.68 29.672C1112.36 30.1627 1111.96 30.5413 1111.47 30.808C1110.97 31.064 1110.39 31.192 1109.72 31.192C1109.02 31.192 1108.41 31.0533 1107.91 30.776C1107.42 30.488 1107.02 30.088 1106.7 29.576C1106.39 29.064 1106.16 28.456 1106.03 27.752C1105.89 27.0373 1105.82 26.2533 1105.82 25.4ZM1112.33 25.4C1112.33 24.8347 1112.3 24.296 1112.23 23.784L1107.48 28.12C1107.66 28.728 1107.93 29.2133 1108.3 29.576C1108.66 29.9387 1109.13 30.12 1109.72 30.12C1110.66 30.12 1111.33 29.7307 1111.72 28.952C1112.13 28.1733 1112.33 26.9893 1112.33 25.4ZM1107.15 25.4C1107.15 25.6667 1107.15 25.9227 1107.16 26.168C1107.18 26.4133 1107.2 26.6533 1107.23 26.888L1111.99 22.568C1111.81 21.992 1111.54 21.5333 1111.18 21.192C1110.83 20.8507 1110.35 20.68 1109.74 20.68C1108.79 20.68 1108.12 21.0747 1107.72 21.864C1107.34 22.6427 1107.15 23.8213 1107.15 25.4ZM1115.41 25.4C1115.41 24.4933 1115.49 23.6827 1115.65 22.968C1115.81 22.2427 1116.05 21.6347 1116.37 21.144C1116.69 20.6427 1117.1 20.264 1117.59 20.008C1118.08 19.7413 1118.66 19.608 1119.33 19.608C1120.05 19.608 1120.65 19.736 1121.14 19.992C1121.64 20.248 1122.05 20.6213 1122.36 21.112C1122.66 21.6027 1122.89 22.2107 1123.03 22.936C1123.17 23.6507 1123.24 24.472 1123.24 25.4C1123.24 26.3067 1123.16 27.1227 1123 27.848C1122.84 28.5627 1122.6 29.1707 1122.28 29.672C1121.96 30.1627 1121.55 30.5413 1121.06 30.808C1120.57 31.064 1119.99 31.192 1119.32 31.192C1118.61 31.192 1118.01 31.0533 1117.51 30.776C1117.02 30.488 1116.61 30.088 1116.29 29.576C1115.98 29.064 1115.76 28.456 1115.62 27.752C1115.48 27.0373 1115.41 26.2533 1115.41 25.4ZM1121.92 25.4C1121.92 24.8347 1121.89 24.296 1121.83 23.784L1117.08 28.12C1117.26 28.728 1117.53 29.2133 1117.89 29.576C1118.25 29.9387 1118.73 30.12 1119.32 30.12C1120.25 30.12 1120.92 29.7307 1121.32 28.952C1121.72 28.1733 1121.92 26.9893 1121.92 25.4ZM1116.74 25.4C1116.74 25.6667 1116.74 25.9227 1116.76 26.168C1116.78 26.4133 1116.8 26.6533 1116.82 26.888L1121.59 22.568C1121.41 21.992 1121.13 21.5333 1120.77 21.192C1120.42 20.8507 1119.94 20.68 1119.33 20.68C1118.38 20.68 1117.71 21.0747 1117.32 21.864C1116.93 22.6427 1116.74 23.8213 1116.74 25.4ZM1137.81 30.072C1138.22 30.072 1138.59 30.024 1138.93 29.928C1139.28 29.8213 1139.56 29.6667 1139.8 29.464C1140.04 29.2507 1140.23 28.9893 1140.36 28.68C1140.5 28.3707 1140.57 28.008 1140.57 27.592C1140.57 26.824 1140.29 26.2427 1139.73 25.848C1139.19 25.4427 1138.44 25.24 1137.49 25.24L1135.99 25.32V19.8H1141.48V20.952H1137.19V24.2L1137.99 24.168C1139.17 24.168 1140.11 24.456 1140.79 25.032C1141.47 25.608 1141.81 26.4293 1141.81 27.496C1141.81 28.0933 1141.71 28.6213 1141.49 29.08C1141.29 29.5387 1141.01 29.928 1140.65 30.248C1140.28 30.5573 1139.85 30.792 1139.35 30.952C1138.86 31.112 1138.32 31.192 1137.73 31.192C1137.41 31.192 1137.11 31.1653 1136.82 31.112C1136.53 31.0693 1136.27 31.016 1136.04 30.952C1135.8 30.8773 1135.6 30.8027 1135.41 30.728C1135.24 30.6427 1135.12 30.568 1135.05 30.504L1135.56 29.464C1135.74 29.5707 1136.02 29.6987 1136.39 29.848C1136.76 29.9973 1137.24 30.072 1137.81 30.072ZM1151.31 22.632C1151.31 23.6133 1150.85 24.7067 1149.92 25.912C1148.99 27.1173 1147.7 28.4293 1146.03 29.848H1151.66V31H1144.56V29.848C1144.76 29.656 1145.04 29.4053 1145.39 29.096C1145.74 28.7867 1146.12 28.4453 1146.53 28.072C1146.93 27.688 1147.34 27.2773 1147.76 26.84C1148.19 26.4027 1148.57 25.9547 1148.91 25.496C1149.25 25.0373 1149.53 24.5787 1149.74 24.12C1149.96 23.6613 1150.06 23.2187 1150.06 22.792C1150.06 22.152 1149.89 21.6507 1149.55 21.288C1149.22 20.9147 1148.72 20.728 1148.05 20.728C1147.47 20.728 1146.99 20.792 1146.59 20.92C1146.2 21.048 1145.84 21.2347 1145.52 21.48L1144.98 20.6C1145.46 20.2587 1145.96 20.008 1146.5 19.848C1147.04 19.688 1147.63 19.608 1148.27 19.608C1149.28 19.608 1150.03 19.88 1150.54 20.424C1151.06 20.968 1151.31 21.704 1151.31 22.632ZM1166.6 30.072C1167 30.072 1167.37 30.024 1167.72 29.928C1168.06 29.8213 1168.35 29.6667 1168.58 29.464C1168.83 29.2507 1169.01 28.9893 1169.14 28.68C1169.28 28.3707 1169.35 28.008 1169.35 27.592C1169.35 26.824 1169.07 26.2427 1168.52 25.848C1167.97 25.4427 1167.23 25.24 1166.28 25.24L1164.77 25.32V19.8H1170.26V20.952H1165.97V24.2L1166.77 24.168C1167.96 24.168 1168.89 24.456 1169.57 25.032C1170.25 25.608 1170.6 26.4293 1170.6 27.496C1170.6 28.0933 1170.49 28.6213 1170.28 29.08C1170.07 29.5387 1169.79 29.928 1169.43 30.248C1169.07 30.5573 1168.63 30.792 1168.13 30.952C1167.64 31.112 1167.1 31.192 1166.52 31.192C1166.2 31.192 1165.89 31.1653 1165.6 31.112C1165.32 31.0693 1165.05 31.016 1164.82 30.952C1164.59 30.8773 1164.38 30.8027 1164.2 30.728C1164.03 30.6427 1163.9 30.568 1163.83 30.504L1164.34 29.464C1164.52 29.5707 1164.8 29.6987 1165.17 29.848C1165.55 29.9973 1166.02 30.072 1166.6 30.072ZM1180.09 22.632C1180.09 23.6133 1179.63 24.7067 1178.7 25.912C1177.77 27.1173 1176.48 28.4293 1174.81 29.848H1180.45V31H1173.34V29.848C1173.54 29.656 1173.82 29.4053 1174.17 29.096C1174.53 28.7867 1174.9 28.4453 1175.31 28.072C1175.72 27.688 1176.13 27.2773 1176.54 26.84C1176.97 26.4027 1177.35 25.9547 1177.69 25.496C1178.04 25.0373 1178.31 24.5787 1178.53 24.12C1178.74 23.6613 1178.85 23.2187 1178.85 22.792C1178.85 22.152 1178.68 21.6507 1178.33 21.288C1178 20.9147 1177.5 20.728 1176.83 20.728C1176.25 20.728 1175.77 20.792 1175.37 20.92C1174.98 21.048 1174.62 21.2347 1174.3 21.48L1173.76 20.6C1174.24 20.2587 1174.74 20.008 1175.28 19.848C1175.82 19.688 1176.41 19.608 1177.05 19.608C1178.06 19.608 1178.81 19.88 1179.33 20.424C1179.84 20.968 1180.09 21.704 1180.09 22.632Z" fill="white"/>
<path d="M792.68 31V29.928H795.464V24.072H792.68V23H796.744V29.928H799.464V31H792.68ZM795.032 20.728C795.032 20.44 795.128 20.1947 795.32 19.992C795.512 19.7787 795.757 19.672 796.056 19.672C796.365 19.672 796.621 19.7787 796.824 19.992C797.037 20.1947 797.144 20.44 797.144 20.728C797.144 21.0053 797.037 21.24 796.824 21.432C796.621 21.624 796.365 21.72 796.056 21.72C795.757 21.72 795.512 21.624 795.32 21.432C795.128 21.24 795.032 21.0053 795.032 20.728ZM802.082 25.8C802.082 25.704 802.076 25.5813 802.066 25.432C802.066 25.272 802.06 25.112 802.05 24.952C802.039 24.7813 802.023 24.616 802.002 24.456C801.991 24.296 801.975 24.1573 801.954 24.04H800.882V23H803.026L803.17 24.296H803.25C803.356 24.1147 803.495 23.9387 803.666 23.768C803.847 23.5867 804.055 23.4267 804.29 23.288C804.524 23.1387 804.786 23.0213 805.074 22.936C805.362 22.8507 805.666 22.808 805.986 22.808C806.476 22.808 806.908 22.8613 807.282 22.968C807.666 23.0747 807.98 23.2667 808.226 23.544C808.482 23.8107 808.674 24.1787 808.802 24.648C808.93 25.1067 808.994 25.6933 808.994 26.408V31H807.746V26.648C807.746 25.7627 807.602 25.096 807.314 24.648C807.026 24.2 806.503 23.976 805.746 23.976C805.468 23.976 805.196 24.0347 804.93 24.152C804.674 24.2587 804.439 24.4027 804.226 24.584C804.012 24.7653 803.826 24.9787 803.666 25.224C803.506 25.4587 803.388 25.7093 803.314 25.976V31H802.082V25.8ZM811.596 31V29.928H813.5V24.072H811.596V23H813.5V22.552C813.5 21.5493 813.761 20.824 814.284 20.376C814.806 19.928 815.553 19.704 816.524 19.704C816.876 19.704 817.19 19.7253 817.468 19.768C817.745 19.8107 818.044 19.896 818.364 20.024L818.076 21.064C817.798 20.9467 817.532 20.872 817.276 20.84C817.02 20.7973 816.785 20.776 816.572 20.776C815.868 20.776 815.388 20.952 815.132 21.304C814.876 21.6453 814.748 22.2107 814.748 23H818.06V24.072H814.748V29.928H818.06V31H811.596ZM820.693 27C820.693 25.7093 821.029 24.6907 821.701 23.944C822.373 23.1867 823.333 22.808 824.581 22.808C825.253 22.808 825.829 22.92 826.309 23.144C826.8 23.3573 827.205 23.6507 827.525 24.024C827.845 24.3973 828.08 24.84 828.229 25.352C828.389 25.864 828.469 26.4133 828.469 27C828.469 27.64 828.384 28.2213 828.213 28.744C828.043 29.256 827.792 29.6933 827.461 30.056C827.131 30.4187 826.72 30.7013 826.229 30.904C825.749 31.096 825.2 31.192 824.581 31.192C823.92 31.192 823.344 31.0853 822.853 30.872C822.363 30.648 821.957 30.3493 821.637 29.976C821.317 29.6027 821.077 29.16 820.917 28.648C820.768 28.136 820.693 27.5867 820.693 27ZM822.021 27C822.021 27.3733 822.064 27.7467 822.149 28.12C822.245 28.4933 822.395 28.8293 822.597 29.128C822.8 29.4267 823.061 29.6667 823.381 29.848C823.712 30.0293 824.112 30.12 824.581 30.12C825.435 30.12 826.075 29.8587 826.501 29.336C826.939 28.8027 827.157 28.024 827.157 27C827.157 26.616 827.109 26.2427 827.013 25.88C826.928 25.5067 826.779 25.1707 826.565 24.872C826.363 24.5733 826.096 24.3333 825.765 24.152C825.445 23.9707 825.051 23.88 824.581 23.88C823.728 23.88 823.088 24.1413 822.661 24.664C822.235 25.1867 822.021 25.9653 822.021 27ZM837.807 25.768C837.807 26.1733 837.796 26.6053 837.775 27.064C837.754 27.5227 837.738 27.9813 837.727 28.44C837.727 28.9733 837.759 29.48 837.823 29.96H838.895V31H836.767L836.623 29.8H836.543C836.479 29.896 836.399 30.0187 836.303 30.168C836.207 30.3173 836.074 30.4667 835.903 30.616C835.743 30.7547 835.53 30.8773 835.263 30.984C834.996 31.0907 834.66 31.144 834.255 31.144C833.914 31.144 833.594 31.0907 833.295 30.984C833.007 30.8773 832.756 30.728 832.543 30.536C832.33 30.3333 832.159 30.0933 832.031 29.816C831.914 29.5387 831.855 29.224 831.855 28.872C831.855 28.328 831.972 27.8747 832.207 27.512C832.442 27.1493 832.767 26.872 833.183 26.68C833.599 26.488 834.09 26.376 834.655 26.344C835.231 26.312 835.855 26.3547 836.527 26.472C836.559 25.9387 836.554 25.48 836.511 25.096C836.468 24.7013 836.372 24.3813 836.223 24.136C836.074 23.88 835.86 23.6933 835.583 23.576C835.316 23.448 834.97 23.384 834.543 23.384C834.095 23.384 833.647 23.496 833.199 23.72C832.762 23.944 832.372 24.2747 832.031 24.712C831.69 25.1387 831.412 25.6667 831.199 26.296C830.986 26.9147 830.879 27.6187 830.879 28.408C830.879 29.2507 830.991 29.9813 831.215 30.6C831.45 31.2187 831.759 31.7307 832.143 32.136C832.527 32.5413 832.97 32.84 833.471 33.032C833.983 33.2347 834.522 33.336 835.087 33.336C835.322 33.336 835.572 33.304 835.839 33.24C836.116 33.1867 836.383 33.1067 836.639 33C836.906 32.8933 837.151 32.76 837.375 32.6C837.61 32.4507 837.812 32.28 837.983 32.088L838.639 32.936C838.191 33.416 837.647 33.7787 837.007 34.024C836.378 34.28 835.695 34.408 834.959 34.408C834.34 34.408 833.722 34.3013 833.103 34.088C832.484 33.8853 831.924 33.5493 831.423 33.08C830.922 32.6213 830.511 32.0133 830.191 31.256C829.882 30.5093 829.727 29.592 829.727 28.504C829.727 27.448 829.876 26.536 830.175 25.768C830.474 24.9893 830.863 24.344 831.343 23.832C831.823 23.32 832.367 22.9413 832.975 22.696C833.583 22.44 834.196 22.312 834.815 22.312C835.37 22.312 835.839 22.3813 836.223 22.52C836.607 22.6587 836.916 22.872 837.151 23.16C837.386 23.4373 837.551 23.7947 837.647 24.232C837.754 24.6587 837.807 25.1707 837.807 25.768ZM834.575 30.072C834.874 30.072 835.135 30.024 835.359 29.928C835.583 29.832 835.77 29.7093 835.919 29.56C836.068 29.4107 836.191 29.2507 836.287 29.08C836.383 28.8987 836.463 28.728 836.527 28.568V27.448C836.026 27.352 835.567 27.304 835.151 27.304C834.746 27.304 834.394 27.3573 834.095 27.464C833.796 27.56 833.567 27.7147 833.407 27.928C833.247 28.1413 833.167 28.4187 833.167 28.76C833.167 29.112 833.279 29.4213 833.503 29.688C833.738 29.944 834.095 30.072 834.575 30.072ZM845.977 28.84C845.977 28.4987 845.843 28.2373 845.577 28.056C845.31 27.864 844.979 27.7147 844.585 27.608C844.19 27.4907 843.758 27.384 843.289 27.288C842.83 27.192 842.403 27.064 842.009 26.904C841.614 26.744 841.283 26.5307 841.017 26.264C840.75 25.9867 840.617 25.6027 840.617 25.112C840.617 24.7067 840.702 24.36 840.873 24.072C841.054 23.784 841.289 23.5493 841.577 23.368C841.865 23.176 842.201 23.0373 842.585 22.952C842.969 22.856 843.369 22.808 843.785 22.808C844.531 22.808 845.171 22.904 845.705 23.096C846.249 23.2773 846.681 23.4693 847.001 23.672L846.489 24.68C846.137 24.488 845.753 24.3067 845.337 24.136C844.931 23.9547 844.419 23.864 843.801 23.864C843.566 23.864 843.331 23.8907 843.097 23.944C842.873 23.9867 842.665 24.056 842.473 24.152C842.291 24.248 842.142 24.376 842.025 24.536C841.918 24.6853 841.865 24.872 841.865 25.096C841.865 25.3733 841.998 25.5867 842.265 25.736C842.531 25.8853 842.862 26.0133 843.257 26.12C843.651 26.216 844.078 26.312 844.537 26.408C845.006 26.4933 845.438 26.6213 845.833 26.792C846.227 26.9627 846.558 27.192 846.825 27.48C847.091 27.768 847.225 28.1573 847.225 28.648C847.225 29.384 846.931 29.992 846.345 30.472C845.769 30.952 844.899 31.192 843.737 31.192C843.385 31.192 843.038 31.16 842.697 31.096C842.355 31.032 842.035 30.9467 841.737 30.84C841.438 30.7333 841.166 30.616 840.921 30.488C840.675 30.3493 840.473 30.2107 840.313 30.072L840.953 29.032C841.081 29.16 841.251 29.2933 841.465 29.432C841.678 29.56 841.913 29.6773 842.169 29.784C842.425 29.8907 842.697 29.976 842.985 30.04C843.283 30.104 843.582 30.136 843.881 30.136C844.169 30.136 844.435 30.1147 844.681 30.072C844.937 30.0187 845.161 29.944 845.353 29.848C845.545 29.7413 845.694 29.608 845.801 29.448C845.918 29.2773 845.977 29.0747 845.977 28.84ZM854.147 19.8H856.739V28.264C856.739 28.36 856.744 28.4827 856.755 28.632C856.765 28.7707 856.776 28.92 856.786 29.08C856.808 29.24 856.829 29.4 856.851 29.56C856.872 29.7093 856.893 29.8427 856.915 29.96H857.987V31H855.859L855.699 29.768H855.635C855.4 30.1733 855.048 30.5147 854.579 30.792C854.12 31.0587 853.587 31.192 852.979 31.192C851.773 31.192 850.883 30.856 850.307 30.184C849.741 29.5013 849.459 28.4453 849.459 27.016C849.459 26.344 849.555 25.752 849.747 25.24C849.939 24.7173 850.211 24.2853 850.562 23.944C850.925 23.592 851.357 23.3253 851.859 23.144C852.36 22.9627 852.92 22.872 853.539 22.872C853.763 22.872 853.96 22.8773 854.131 22.888C854.312 22.8987 854.477 22.9147 854.627 22.936C854.776 22.9573 854.915 22.9893 855.043 23.032C855.181 23.064 855.331 23.1013 855.491 23.144V20.872H854.147V19.8ZM853.187 30.12C853.837 30.12 854.349 29.9547 854.723 29.624C855.096 29.2827 855.352 28.776 855.491 28.104V24.392C855.256 24.232 854.989 24.1147 854.691 24.04C854.403 23.9653 854.019 23.928 853.539 23.928C852.685 23.928 852.013 24.1787 851.523 24.68C851.032 25.1707 850.787 25.9493 850.787 27.016C850.787 27.4533 850.824 27.864 850.899 28.248C850.984 28.6213 851.117 28.9467 851.299 29.224C851.491 29.5013 851.741 29.72 852.051 29.88C852.36 30.04 852.739 30.12 853.187 30.12ZM861.884 30.12C861.884 29.7787 861.98 29.5173 862.172 29.336C862.364 29.144 862.62 29.048 862.94 29.048C863.282 29.048 863.548 29.144 863.74 29.336C863.932 29.5173 864.028 29.7787 864.028 30.12C864.028 30.4293 863.932 30.6853 863.74 30.888C863.548 31.0907 863.282 31.192 862.94 31.192C862.62 31.192 862.364 31.0907 862.172 30.888C861.98 30.6853 861.884 30.4293 861.884 30.12ZM868.806 31V29.928H870.966V24.072H868.806V23H871.798L872.054 24.04H872.134C872.497 23.7093 872.902 23.4267 873.35 23.192C873.798 22.9573 874.331 22.84 874.95 22.84C875.313 22.84 875.601 22.9093 875.814 23.048C876.038 23.1867 876.209 23.3893 876.326 23.656C876.454 23.9227 876.539 24.248 876.582 24.632C876.625 25.0053 876.646 25.432 876.646 25.912L875.526 25.928C875.526 25.2453 875.457 24.744 875.318 24.424C875.19 24.104 874.95 23.944 874.598 23.944C874.267 23.944 873.969 23.992 873.702 24.088C873.435 24.184 873.201 24.3013 872.998 24.44C872.806 24.5787 872.641 24.7173 872.502 24.856C872.363 24.9947 872.262 25.112 872.198 25.208V29.928H875.27V31H868.806ZM883.152 23H885.424V28.456C885.424 28.9787 885.456 29.48 885.52 29.96H886.592V31H884.464L884.416 29.64H884.352C884.074 30.0987 883.706 30.472 883.248 30.76C882.789 31.048 882.234 31.192 881.584 31.192C881.093 31.192 880.672 31.1333 880.32 31.016C879.978 30.9093 879.696 30.7173 879.472 30.44C879.248 30.1627 879.082 29.7947 878.976 29.336C878.869 28.8667 878.816 28.2853 878.816 27.592V24.072H877.744V23H880.064V27.336C880.064 27.7733 880.08 28.168 880.112 28.52C880.154 28.8613 880.234 29.1547 880.352 29.4C880.469 29.6347 880.64 29.816 880.864 29.944C881.098 30.0613 881.408 30.12 881.792 30.12C882.346 30.12 882.826 29.9387 883.232 29.576C883.648 29.2133 883.962 28.76 884.176 28.216V24.072H883.152V23Z" fill="white"/>
<path d="M76.9355 24.3369C76.9355 23.6126 76.7484 23.0674 76.374 22.7012C76.0078 22.3268 75.3364 21.9403 74.3599 21.5415C72.5776 20.866 71.2959 20.0767 70.5146 19.1733C69.7334 18.2619 69.3428 17.1877 69.3428 15.9507C69.3428 14.4533 69.8717 13.2529 70.9297 12.3496C71.9958 11.4382 73.3467 10.9824 74.9824 10.9824C76.0729 10.9824 77.0454 11.2144 77.8999 11.6782C78.7544 12.134 79.4095 12.7809 79.8652 13.6191C80.3291 14.4574 80.561 15.4095 80.561 16.4756H76.9844C76.9844 15.6455 76.8053 15.0148 76.4473 14.5835C76.0973 14.144 75.5887 13.9243 74.9214 13.9243C74.2948 13.9243 73.8065 14.1115 73.4565 14.4858C73.1066 14.8521 72.9316 15.3485 72.9316 15.9751C72.9316 16.4634 73.127 16.9069 73.5176 17.3057C73.9082 17.6963 74.5999 18.1032 75.5928 18.5264C77.3262 19.153 78.5835 19.922 79.3647 20.8335C80.1541 21.745 80.5488 22.9046 80.5488 24.3125C80.5488 25.8587 80.0565 27.0672 79.0718 27.938C78.0871 28.8088 76.7484 29.2441 75.0557 29.2441C73.9082 29.2441 72.8625 29.0081 71.9185 28.5361C70.9744 28.0641 70.2339 27.3887 69.6968 26.5098C69.1678 25.6309 68.9033 24.5933 68.9033 23.397H72.5044C72.5044 24.4224 72.7038 25.167 73.1025 25.6309C73.5013 26.0947 74.1523 26.3267 75.0557 26.3267C76.3089 26.3267 76.9355 25.6634 76.9355 24.3369ZM86.0054 15.792L86.103 17.0127C86.8761 16.0361 87.8975 15.5479 89.167 15.5479C90.4854 15.5479 91.4172 16.1419 91.9624 17.3301C92.7192 16.1419 93.7975 15.5479 95.1973 15.5479C97.5085 15.5479 98.6925 17.147 98.7495 20.3452V29H95.2949V20.5649C95.2949 19.8 95.1891 19.2547 94.9775 18.9292C94.766 18.6037 94.4079 18.4409 93.9033 18.4409C93.2604 18.4409 92.7803 18.8356 92.4629 19.625L92.4873 20.04V29H89.0327V20.5894C89.0327 19.8325 88.931 19.2873 88.7275 18.9536C88.5241 18.6118 88.1619 18.4409 87.6411 18.4409C87.047 18.4409 86.575 18.7624 86.2251 19.4053V29H82.7705V15.792H86.0054ZM107.587 29C107.49 28.7965 107.392 28.4548 107.294 27.9746C106.676 28.821 105.838 29.2441 104.78 29.2441C103.673 29.2441 102.753 28.8779 102.021 28.1455C101.297 27.4131 100.935 26.465 100.935 25.3013C100.935 23.9178 101.374 22.8477 102.253 22.0908C103.14 21.334 104.414 20.9474 106.074 20.9312H107.124V19.8691C107.124 19.2751 107.022 18.856 106.818 18.6118C106.615 18.3677 106.318 18.2456 105.927 18.2456C105.065 18.2456 104.633 18.7502 104.633 19.7593H101.179C101.179 18.5386 101.634 17.5335 102.546 16.7441C103.465 15.9466 104.625 15.5479 106.025 15.5479C107.473 15.5479 108.592 15.9263 109.382 16.6831C110.179 17.4318 110.578 18.506 110.578 19.9058V26.1191C110.594 27.2585 110.757 28.1496 111.066 28.7925V29H107.587ZM105.549 26.5342C105.931 26.5342 106.257 26.4569 106.525 26.3022C106.794 26.1476 106.993 25.9645 107.124 25.7529V23.0063H106.293C105.708 23.0063 105.244 23.1935 104.902 23.5679C104.568 23.9422 104.401 24.4427 104.401 25.0693C104.401 26.0459 104.784 26.5342 105.549 26.5342ZM119.599 19.1245L118.452 19.0269C117.508 19.0269 116.869 19.4419 116.535 20.272V29H113.068V15.792H116.328L116.425 17.2202C116.971 16.1053 117.723 15.5479 118.684 15.5479C119.074 15.5479 119.392 15.6007 119.636 15.7065L119.599 19.1245ZM126.008 12.5449V15.792H127.778V18.3921H126.008V24.9473C126.008 25.4681 126.077 25.8262 126.215 26.0215C126.362 26.2168 126.639 26.3145 127.045 26.3145C127.379 26.3145 127.652 26.286 127.863 26.229L127.839 28.9146C127.253 29.1343 126.618 29.2441 125.935 29.2441C123.705 29.2441 122.578 27.9665 122.553 25.4111V18.3921H121.027V15.792H122.553V12.5449H126.008ZM135.615 29V11.2266H140.314C142.39 11.2266 144.042 11.8857 145.271 13.2041C146.507 14.5225 147.138 16.3291 147.163 18.624V21.5049C147.163 23.8405 146.544 25.6756 145.307 27.0103C144.078 28.3368 142.382 29 140.217 29H135.615ZM139.204 14.2173V26.0215H140.278C141.474 26.0215 142.316 25.7082 142.805 25.0815C143.293 24.4468 143.549 23.3563 143.574 21.8101V18.7217C143.574 17.0615 143.342 15.9059 142.878 15.2549C142.414 14.5957 141.625 14.2498 140.51 14.2173H139.204ZM154.914 29.2441C153.14 29.2441 151.757 28.7152 150.764 27.6572C149.771 26.5993 149.274 25.0856 149.274 23.1162V22.0664C149.274 19.9831 149.73 18.3758 150.642 17.2446C151.553 16.1134 152.859 15.5479 154.56 15.5479C156.22 15.5479 157.469 16.0809 158.308 17.147C159.146 18.2049 159.573 19.7756 159.589 21.8589V23.5557H152.717C152.766 24.5322 152.981 25.2484 153.364 25.7041C153.746 26.1517 154.336 26.3755 155.134 26.3755C156.289 26.3755 157.254 25.9808 158.027 25.1914L159.382 27.2788C158.959 27.8647 158.344 28.3408 157.539 28.707C156.733 29.0651 155.858 29.2441 154.914 29.2441ZM152.741 21.1387H156.196V20.8213C156.18 20.0319 156.049 19.4338 155.805 19.0269C155.561 18.62 155.138 18.4165 154.536 18.4165C153.933 18.4165 153.494 18.6322 153.217 19.0635C152.949 19.4948 152.79 20.1865 152.741 21.1387ZM165.705 24.1172L167.377 15.792H170.979L167.353 29H164.057L160.419 15.792H164.033L165.705 24.1172ZM176.228 29H172.761V15.792H176.228V29ZM172.602 12.374C172.602 11.8369 172.773 11.3975 173.115 11.0557C173.457 10.7139 173.912 10.543 174.482 10.543C175.052 10.543 175.507 10.7139 175.849 11.0557C176.191 11.3975 176.362 11.8369 176.362 12.374C176.362 12.903 176.191 13.3424 175.849 13.6924C175.515 14.0423 175.06 14.2173 174.482 14.2173C173.904 14.2173 173.444 14.0423 173.103 13.6924C172.769 13.3424 172.602 12.903 172.602 12.374ZM183.674 26.3755C184.675 26.3755 185.183 25.7244 185.2 24.4224H188.447C188.431 25.8628 187.987 27.0265 187.116 27.9136C186.245 28.8006 185.122 29.2441 183.747 29.2441C182.046 29.2441 180.748 28.7152 179.853 27.6572C178.958 26.5993 178.502 25.0409 178.486 22.9819V21.9321C178.486 19.8569 178.925 18.2741 179.804 17.1836C180.691 16.0931 181.997 15.5479 183.723 15.5479C185.179 15.5479 186.327 15.9995 187.165 16.9028C188.003 17.798 188.431 19.0716 188.447 20.7236H185.2C185.192 19.9831 185.069 19.4134 184.833 19.0146C184.597 18.6159 184.207 18.4165 183.662 18.4165C183.059 18.4165 182.628 18.6322 182.368 19.0635C182.107 19.4867 181.969 20.3127 181.953 21.5415V22.8843C181.953 23.9585 182.006 24.7113 182.111 25.1426C182.217 25.5658 182.392 25.8791 182.636 26.0825C182.88 26.2778 183.226 26.3755 183.674 26.3755ZM195.734 29.2441C193.96 29.2441 192.577 28.7152 191.584 27.6572C190.591 26.5993 190.095 25.0856 190.095 23.1162V22.0664C190.095 19.9831 190.55 18.3758 191.462 17.2446C192.373 16.1134 193.68 15.5479 195.38 15.5479C197.041 15.5479 198.29 16.0809 199.128 17.147C199.966 18.2049 200.393 19.7756 200.41 21.8589V23.5557H193.537C193.586 24.5322 193.802 25.2484 194.184 25.7041C194.567 26.1517 195.157 26.3755 195.954 26.3755C197.11 26.3755 198.074 25.9808 198.847 25.1914L200.202 27.2788C199.779 27.8647 199.165 28.3408 198.359 28.707C197.553 29.0651 196.678 29.2441 195.734 29.2441ZM193.562 21.1387H197.016V20.8213C197 20.0319 196.87 19.4338 196.625 19.0269C196.381 18.62 195.958 18.4165 195.356 18.4165C194.754 18.4165 194.314 18.6322 194.038 19.0635C193.769 19.4948 193.61 20.1865 193.562 21.1387Z" fill="white"/>
<rect x="320" y="20" width="37" height="1" fill="white"/>
<rect x="320" y="32" width="37" height="1" fill="white"/>
<path d="M70.9473 44.9609L72.2363 40.6602H73.7539L71.2344 47.9609C70.8477 49.0273 70.1914 49.5605 69.2656 49.5605C69.0586 49.5605 68.8301 49.5254 68.5801 49.4551V48.3535L68.8496 48.3711C69.209 48.3711 69.4785 48.3047 69.6582 48.1719C69.8418 48.043 69.9863 47.8242 70.0918 47.5156L70.2969 46.9707L68.0703 40.6602H69.6055L70.9473 44.9609ZM78.3418 45.248L80.2168 40.6602H81.998V47H80.5742V42.8047L78.8281 47H77.8613L76.1094 42.7812V47H74.6855V40.6602H76.4785L78.3418 45.248ZM88.9707 47H87.5469V44.4395H85.0801V47H83.6562V40.6602H85.0801V43.3027H87.5469V40.6602H88.9707V47ZM92.0234 42.6758H93.418C93.9375 42.6758 94.3906 42.7656 94.7773 42.9453C95.1641 43.125 95.457 43.377 95.6562 43.7012C95.8594 44.0254 95.9609 44.4023 95.9609 44.832C95.9609 45.4844 95.7305 46.0078 95.2695 46.4023C94.8086 46.7969 94.1953 46.9961 93.4297 47H90.5996V40.6602H92.0234V42.6758ZM98.4395 47H97.0156V40.6602H98.4395V47ZM92.0234 43.8184V45.8633H93.4121C93.7598 45.8633 94.0332 45.7773 94.2324 45.6055C94.4355 45.4297 94.5371 45.1816 94.5371 44.8613C94.5371 44.541 94.4375 44.2891 94.2383 44.1055C94.043 43.918 93.7773 43.8223 93.4414 43.8184H92.0234ZM102.939 47.1172C102.037 47.1172 101.305 46.834 100.742 46.2676C100.184 45.6973 99.9043 44.9395 99.9043 43.9941V43.8184C99.9043 43.1855 100.025 42.6211 100.268 42.125C100.514 41.625 100.857 41.2363 101.299 40.959C101.74 40.6816 102.232 40.543 102.775 40.543C103.639 40.543 104.305 40.8184 104.773 41.3691C105.246 41.9199 105.482 42.6992 105.482 43.707V44.2812H101.34C101.383 44.8047 101.557 45.2188 101.861 45.5234C102.17 45.8281 102.557 45.9805 103.021 45.9805C103.674 45.9805 104.205 45.7168 104.615 45.1895L105.383 45.9219C105.129 46.3008 104.789 46.5957 104.363 46.8066C103.941 47.0137 103.467 47.1172 102.939 47.1172ZM102.77 41.6855C102.379 41.6855 102.062 41.8223 101.82 42.0957C101.582 42.3691 101.43 42.75 101.363 43.2383H104.076V43.1328C104.045 42.6562 103.918 42.2969 103.695 42.0547C103.473 41.8086 103.164 41.6855 102.77 41.6855ZM114.57 41.791H112.514V47H111.09V41.791H109.057V40.6602H114.57V41.791ZM117.939 47.1172C117.037 47.1172 116.305 46.834 115.742 46.2676C115.184 45.6973 114.904 44.9395 114.904 43.9941V43.8184C114.904 43.1855 115.025 42.6211 115.268 42.125C115.514 41.625 115.857 41.2363 116.299 40.959C116.74 40.6816 117.232 40.543 117.775 40.543C118.639 40.543 119.305 40.8184 119.773 41.3691C120.246 41.9199 120.482 42.6992 120.482 43.707V44.2812H116.34C116.383 44.8047 116.557 45.2188 116.861 45.5234C117.17 45.8281 117.557 45.9805 118.021 45.9805C118.674 45.9805 119.205 45.7168 119.615 45.1895L120.383 45.9219C120.129 46.3008 119.789 46.5957 119.363 46.8066C118.941 47.0137 118.467 47.1172 117.939 47.1172ZM117.77 41.6855C117.379 41.6855 117.062 41.8223 116.82 42.0957C116.582 42.3691 116.43 42.75 116.363 43.2383H119.076V43.1328C119.045 42.6562 118.918 42.2969 118.695 42.0547C118.473 41.8086 118.164 41.6855 117.77 41.6855ZM123.869 42.7461L125.076 40.6602H126.658L124.719 43.7832L126.723 47H125.152L123.887 44.832L122.627 47H121.045L123.049 43.7832L121.115 40.6602H122.686L123.869 42.7461ZM132.998 47H131.574V44.4395H129.107V47H127.684V40.6602H129.107V43.3027H131.574V40.6602H132.998V47ZM134.252 43.7715C134.252 43.1504 134.375 42.5918 134.621 42.0957C134.867 41.5957 135.213 41.2129 135.658 40.9473C136.104 40.6777 136.615 40.543 137.193 40.543C138.049 40.543 138.742 40.8184 139.273 41.3691C139.809 41.9199 140.098 42.6504 140.141 43.5605L140.146 43.8945C140.146 44.5195 140.025 45.0781 139.783 45.5703C139.545 46.0625 139.201 46.4434 138.752 46.7129C138.307 46.9824 137.791 47.1172 137.205 47.1172C136.311 47.1172 135.594 46.8203 135.055 46.2266C134.52 45.6289 134.252 44.834 134.252 43.8418V43.7715ZM135.676 43.8945C135.676 44.5469 135.811 45.0586 136.08 45.4297C136.35 45.7969 136.725 45.9805 137.205 45.9805C137.686 45.9805 138.059 45.793 138.324 45.418C138.594 45.043 138.729 44.4941 138.729 43.7715C138.729 43.1309 138.59 42.623 138.312 42.248C138.039 41.873 137.666 41.6855 137.193 41.6855C136.729 41.6855 136.359 41.8711 136.086 42.2422C135.812 42.6094 135.676 43.1602 135.676 43.8945ZM146.645 40.6602V47H145.221V41.8086H143.428L143.311 44.0176C143.236 45.0801 143.031 45.8438 142.695 46.3086C142.363 46.7695 141.854 47 141.166 47H140.727L140.721 45.8164L141.014 45.7871C141.326 45.7441 141.553 45.5547 141.693 45.2188C141.838 44.8789 141.93 44.2617 141.969 43.3672L142.086 40.6602H146.645ZM147.893 43.7715C147.893 43.1504 148.016 42.5918 148.262 42.0957C148.508 41.5957 148.854 41.2129 149.299 40.9473C149.744 40.6777 150.256 40.543 150.834 40.543C151.689 40.543 152.383 40.8184 152.914 41.3691C153.449 41.9199 153.738 42.6504 153.781 43.5605L153.787 43.8945C153.787 44.5195 153.666 45.0781 153.424 45.5703C153.186 46.0625 152.842 46.4434 152.393 46.7129C151.947 46.9824 151.432 47.1172 150.846 47.1172C149.951 47.1172 149.234 46.8203 148.695 46.2266C148.16 45.6289 147.893 44.834 147.893 43.8418V43.7715ZM149.316 43.8945C149.316 44.5469 149.451 45.0586 149.721 45.4297C149.99 45.7969 150.365 45.9805 150.846 45.9805C151.326 45.9805 151.699 45.793 151.965 45.418C152.234 45.043 152.369 44.4941 152.369 43.7715C152.369 43.1309 152.23 42.623 151.953 42.248C151.68 41.873 151.307 41.6855 150.834 41.6855C150.369 41.6855 150 41.8711 149.727 42.2422C149.453 42.6094 149.316 43.1602 149.316 43.8945ZM159.213 41.8086H156.459V47H155.041V40.6602H159.213V41.8086ZM163.977 40.6602H165.395V47H163.977V42.7695L161.492 47H160.074V40.6602H161.492V44.8906L163.977 40.6602ZM170.867 40.6602H172.285V47H170.867V42.7695L168.383 47H166.965V40.6602H168.383V44.8906L170.867 40.6602Z" fill="#788891"/>
<rect x="1231.5" y="4.5" width="179" height="44" rx="4.5" stroke="white"/>
<path d="M1262.61 23.7881C1262.61 23.4235 1262.51 23.1318 1262.31 22.9131C1262.11 22.6943 1261.83 22.585 1261.49 22.585C1261.18 22.585 1260.93 22.6921 1260.73 22.9062C1260.54 23.1159 1260.45 23.3962 1260.45 23.7471H1258.44C1258.44 23.1956 1258.57 22.7057 1258.83 22.2773C1259.1 21.8444 1259.47 21.5094 1259.94 21.2725C1260.41 21.0355 1260.92 20.917 1261.49 20.917C1262.47 20.917 1263.24 21.1654 1263.8 21.6621C1264.35 22.1543 1264.63 22.8493 1264.63 23.7471C1264.63 24.2028 1264.51 24.6198 1264.28 24.998C1264.05 25.3717 1263.74 25.668 1263.34 25.8867C1263.79 26.0781 1264.14 26.3698 1264.39 26.7617C1264.64 27.1491 1264.76 27.6322 1264.76 28.2109C1264.76 29.1087 1264.46 29.8197 1263.86 30.3438C1263.27 30.8678 1262.47 31.1299 1261.49 31.1299C1260.88 31.1299 1260.34 31.0137 1259.85 30.7812C1259.37 30.5488 1258.99 30.2161 1258.72 29.7832C1258.45 29.3503 1258.31 28.8353 1258.31 28.2383H1260.33C1260.33 28.5801 1260.44 28.8717 1260.65 29.1133C1260.87 29.3548 1261.14 29.4756 1261.49 29.4756C1261.87 29.4756 1262.17 29.3548 1262.4 29.1133C1262.63 28.8717 1262.74 28.5596 1262.74 28.1768C1262.74 27.6618 1262.65 27.2926 1262.45 27.0693C1262.25 26.846 1261.97 26.7344 1261.59 26.7344H1260.58V25.1143H1261.6C1262.28 25.1097 1262.61 24.6676 1262.61 23.7881ZM1271.67 28.9629H1268.93L1268.39 31H1266.27L1269.38 21.0469H1271.22L1274.35 31H1272.2L1271.67 28.9629ZM1269.36 27.2881H1271.22L1270.29 23.7402L1269.36 27.2881ZM1278.88 26.9395H1278.01V31H1276V21.0469H1278.01V25.0254H1278.68L1280.41 21.0469H1282.86L1280.43 25.6816L1283.13 31H1280.74L1278.88 26.9395ZM1289.34 28.9629H1286.6L1286.06 31H1283.94L1287.05 21.0469H1288.89L1292.02 31H1289.87L1289.34 28.9629ZM1287.03 27.2881H1288.89L1287.96 23.7402L1287.03 27.2881ZM1297.64 23.7881C1297.64 23.4235 1297.54 23.1318 1297.33 22.9131C1297.13 22.6943 1296.86 22.585 1296.51 22.585C1296.2 22.585 1295.95 22.6921 1295.76 22.9062C1295.57 23.1159 1295.47 23.3962 1295.47 23.7471H1293.46C1293.46 23.1956 1293.59 22.7057 1293.86 22.2773C1294.13 21.8444 1294.5 21.5094 1294.97 21.2725C1295.43 21.0355 1295.95 20.917 1296.51 20.917C1297.5 20.917 1298.27 21.1654 1298.82 21.6621C1299.38 22.1543 1299.65 22.8493 1299.65 23.7471C1299.65 24.2028 1299.54 24.6198 1299.31 24.998C1299.08 25.3717 1298.76 25.668 1298.36 25.8867C1298.82 26.0781 1299.17 26.3698 1299.42 26.7617C1299.66 27.1491 1299.78 27.6322 1299.78 28.2109C1299.78 29.1087 1299.49 29.8197 1298.89 30.3438C1298.29 30.8678 1297.5 31.1299 1296.51 31.1299C1295.91 31.1299 1295.36 31.0137 1294.88 30.7812C1294.39 30.5488 1294.01 30.2161 1293.74 29.7832C1293.47 29.3503 1293.34 28.8353 1293.34 28.2383H1295.35C1295.35 28.5801 1295.46 28.8717 1295.68 29.1133C1295.89 29.3548 1296.17 29.4756 1296.51 29.4756C1296.89 29.4756 1297.2 29.3548 1297.43 29.1133C1297.65 28.8717 1297.77 28.5596 1297.77 28.1768C1297.77 27.6618 1297.67 27.2926 1297.47 27.0693C1297.28 26.846 1296.99 26.7344 1296.62 26.7344H1295.6V25.1143H1296.63C1297.3 25.1097 1297.64 24.6676 1297.64 23.7881ZM1306.69 28.9629H1303.95L1303.42 31H1301.29L1304.4 21.0469H1306.24L1309.37 31H1307.22L1306.69 28.9629ZM1304.39 27.2881H1306.25L1305.32 23.7402L1304.39 27.2881ZM1316.63 22.7217H1314.17V31H1312.16V22.7217H1309.74V21.0469H1316.63V22.7217ZM1320.61 24.6221H1321.8C1322.8 24.6221 1323.61 24.9092 1324.2 25.4834C1324.8 26.0531 1325.1 26.8164 1325.1 27.7734C1325.1 28.7259 1324.81 29.4984 1324.22 30.0908C1323.64 30.6787 1322.87 30.9818 1321.91 31H1318.59V21.0469H1320.61V24.6221ZM1320.61 26.29V29.332H1321.82C1322.22 29.332 1322.52 29.1862 1322.75 28.8945C1322.98 28.5983 1323.09 28.2201 1323.09 27.7598C1323.09 27.3268 1322.98 26.9759 1322.75 26.707C1322.54 26.4336 1322.23 26.2946 1321.84 26.29H1320.61ZM1334.91 23.7881C1334.91 23.4235 1334.8 23.1318 1334.6 22.9131C1334.4 22.6943 1334.13 22.585 1333.78 22.585C1333.47 22.585 1333.22 22.6921 1333.03 22.9062C1332.84 23.1159 1332.74 23.3962 1332.74 23.7471H1330.73C1330.73 23.1956 1330.86 22.7057 1331.13 22.2773C1331.4 21.8444 1331.77 21.5094 1332.23 21.2725C1332.7 21.0355 1333.22 20.917 1333.78 20.917C1334.77 20.917 1335.54 21.1654 1336.09 21.6621C1336.65 22.1543 1336.92 22.8493 1336.92 23.7471C1336.92 24.2028 1336.81 24.6198 1336.58 24.998C1336.35 25.3717 1336.03 25.668 1335.63 25.8867C1336.09 26.0781 1336.44 26.3698 1336.68 26.7617C1336.93 27.1491 1337.05 27.6322 1337.05 28.2109C1337.05 29.1087 1336.76 29.8197 1336.16 30.3438C1335.56 30.8678 1334.77 31.1299 1333.78 31.1299C1333.18 31.1299 1332.63 31.0137 1332.15 30.7812C1331.66 30.5488 1331.28 30.2161 1331.01 29.7832C1330.74 29.3503 1330.61 28.8353 1330.61 28.2383H1332.62C1332.62 28.5801 1332.73 28.8717 1332.95 29.1133C1333.16 29.3548 1333.44 29.4756 1333.78 29.4756C1334.16 29.4756 1334.47 29.3548 1334.7 29.1133C1334.92 28.8717 1335.04 28.5596 1335.04 28.1768C1335.04 27.6618 1334.94 27.2926 1334.74 27.0693C1334.55 26.846 1334.26 26.7344 1333.89 26.7344H1332.87V25.1143H1333.9C1334.57 25.1097 1334.91 24.6676 1334.91 23.7881ZM1339.21 31V21.0469H1342.29C1343.33 21.0469 1344.11 21.2793 1344.65 21.7441C1345.19 22.2044 1345.46 22.8812 1345.46 23.7744C1345.46 24.2803 1345.35 24.7155 1345.13 25.0801C1344.91 25.4447 1344.6 25.7113 1344.21 25.8799C1344.66 26.0075 1345 26.265 1345.25 26.6523C1345.49 27.0352 1345.61 27.5091 1345.61 28.0742C1345.61 29.0404 1345.34 29.7695 1344.81 30.2617C1344.28 30.7539 1343.51 31 1342.5 31H1339.21ZM1341.22 26.6729V29.332H1342.5C1342.86 29.332 1343.14 29.2204 1343.33 28.9971C1343.51 28.7738 1343.61 28.457 1343.61 28.0469C1343.61 27.1536 1343.28 26.6956 1342.63 26.6729H1341.22ZM1341.22 25.21H1342.27C1343.05 25.21 1343.45 24.8021 1343.45 23.9863C1343.45 23.5352 1343.36 23.2116 1343.17 23.0156C1342.99 22.8197 1342.7 22.7217 1342.29 22.7217H1341.22V25.21ZM1354.78 26.9189C1354.78 28.2542 1354.46 29.291 1353.83 30.0293C1353.2 30.7676 1352.32 31.1367 1351.2 31.1367C1350.09 31.1367 1349.21 30.7721 1348.57 30.043C1347.93 29.3092 1347.61 28.2839 1347.6 26.9668V25.2646C1347.6 23.8975 1347.92 22.8311 1348.55 22.0654C1349.18 21.2952 1350.06 20.9102 1351.19 20.9102C1352.3 20.9102 1353.17 21.2884 1353.81 22.0449C1354.45 22.7969 1354.77 23.8542 1354.78 25.2168V26.9189ZM1352.76 25.251C1352.76 24.3532 1352.63 23.6855 1352.38 23.248C1352.12 22.8105 1351.73 22.5918 1351.19 22.5918C1350.66 22.5918 1350.26 22.8037 1350.01 23.2275C1349.75 23.6468 1349.62 24.2871 1349.61 25.1484V26.9189C1349.61 27.7894 1349.74 28.432 1350 28.8467C1350.26 29.2568 1350.66 29.4619 1351.2 29.4619C1351.73 29.4619 1352.12 29.2614 1352.37 28.8604C1352.63 28.4548 1352.76 27.8281 1352.76 26.9805V25.251ZM1363.9 31H1361.9V26.7412H1358.93V31H1356.92V21.0469H1358.93V25.0732H1361.9V21.0469H1363.9V31ZM1373.23 26.9189C1373.23 28.2542 1372.91 29.291 1372.28 30.0293C1371.65 30.7676 1370.77 31.1367 1369.65 31.1367C1368.54 31.1367 1367.66 30.7721 1367.02 30.043C1366.38 29.3092 1366.06 28.2839 1366.05 26.9668V25.2646C1366.05 23.8975 1366.37 22.8311 1367 22.0654C1367.63 21.2952 1368.51 20.9102 1369.64 20.9102C1370.75 20.9102 1371.62 21.2884 1372.26 22.0449C1372.89 22.7969 1373.22 23.8542 1373.23 25.2168V26.9189ZM1371.21 25.251C1371.21 24.3532 1371.08 23.6855 1370.83 23.248C1370.57 22.8105 1370.18 22.5918 1369.64 22.5918C1369.1 22.5918 1368.71 22.8037 1368.46 23.2275C1368.2 23.6468 1368.07 24.2871 1368.06 25.1484V26.9189C1368.06 27.7894 1368.19 28.432 1368.45 28.8467C1368.71 29.2568 1369.11 29.4619 1369.65 29.4619C1370.18 29.4619 1370.57 29.2614 1370.82 28.8604C1371.08 28.4548 1371.21 27.8281 1371.21 26.9805V25.251ZM1378.27 26.9395H1377.39V31H1375.38V21.0469H1377.39V25.0254H1378.07L1379.8 21.0469H1382.25L1379.81 25.6816L1382.52 31H1380.13L1378.27 26.9395Z" fill="white"/>
<path d="M32.0668 13.8665C33.1952 13.8665 34.1485 14.5936 34.5073 15.5998H43.4929C43.8517 14.5936 44.805 13.8665 45.9334 13.8665C47.3669 13.8665 48.5334 15.033 48.5334 16.4664C48.5334 17.8999 47.3669 19.0664 45.9334 19.0664C44.805 19.0664 43.8517 18.3392 43.4929 17.3331H34.5064C34.1476 18.3392 33.1943 19.0664 32.0659 19.0664C30.6324 19.0664 29.4659 17.8999 29.4659 16.4664C29.4659 15.033 30.6333 13.8665 32.0668 13.8665ZM45.9334 17.3331C46.411 17.3331 46.8001 16.9448 46.8001 16.4664C46.8001 15.988 46.411 15.5998 45.9334 15.5998C45.4559 15.5998 45.0668 15.988 45.0668 16.4664C45.0668 16.9448 45.4559 17.3331 45.9334 17.3331ZM32.0668 17.3331C32.5443 17.3331 32.9334 16.9448 32.9334 16.4664C32.9334 15.988 32.5443 15.5998 32.0668 15.5998C31.5892 15.5998 31.2001 15.988 31.2001 16.4664C31.2001 16.9448 31.5892 17.3331 32.0668 17.3331Z" fill="#00B2FF"/>
<path d="M25.1333 19.2259V13.8665C25.1333 13.636 25.2243 13.4158 25.3872 13.2538L28.8539 9.78716C29.0159 9.62423 29.2369 9.53323 29.4666 9.53323H32.2261C32.5849 8.52705 33.5382 7.79993 34.6666 7.79993C36.1001 7.79993 37.2666 8.96644 37.2666 10.3999C37.2666 11.8333 36.1001 12.9998 34.6666 12.9998C33.5382 12.9998 32.5849 12.2727 32.2261 11.2665H29.8254L26.8666 14.2253V19.2259C27.8728 19.5847 28.5999 20.538 28.5999 21.6664C28.5999 23.0998 27.4334 24.2663 25.9999 24.2663C24.5665 24.2663 23.3999 23.0998 23.3999 21.6664C23.3999 20.538 24.1271 19.5847 25.1333 19.2259ZM34.6666 11.2665C35.1441 11.2665 35.5333 10.8783 35.5333 10.3999C35.5333 9.92149 35.1441 9.53323 34.6666 9.53323C34.1891 9.53323 33.7999 9.92149 33.7999 10.3999C33.7999 10.8783 34.1891 11.2665 34.6666 11.2665ZM25.9999 22.533C26.4775 22.533 26.8666 22.1448 26.8666 21.6664C26.8666 21.188 26.4775 20.7997 25.9999 20.7997C25.5224 20.7997 25.1333 21.188 25.1333 21.6664C25.1333 22.1448 25.5224 22.533 25.9999 22.533Z" fill="#00B2FF"/>
<path d="M9.53333 22.533C9.93373 22.533 10.3081 22.6309 10.647 22.7938L12.1333 21.3075V12.9998C12.1333 12.7693 12.2243 12.5491 12.3873 12.3871L21.0609 3.7136C20.8979 3.37474 20.8 3.00035 20.8 2.59996C20.8 1.16651 21.9665 0 23.4 0C24.8335 0 26 1.16651 26 2.59996C26 4.0334 24.8335 5.19991 23.4 5.19991C22.9996 5.19991 22.6252 5.10198 22.2863 4.93905L13.8667 13.3586V21.6663C13.8667 21.8968 13.7757 22.117 13.6127 22.279L11.8725 24.0193C12.0354 24.3581 12.1333 24.7325 12.1333 25.1329C12.1333 26.5664 10.9668 27.7329 9.53333 27.7329C8.09986 27.7329 6.93333 26.5664 6.93333 25.1329C6.93333 23.6995 8.09986 22.533 9.53333 22.533ZM23.4 3.46661C23.8775 3.46661 24.2667 3.07835 24.2667 2.59996C24.2667 2.12156 23.8775 1.7333 23.4 1.7333C22.9225 1.7333 22.5333 2.12156 22.5333 2.59996C22.5333 3.07835 22.9225 3.46661 23.4 3.46661ZM9.53333 25.9996C10.0109 25.9996 10.4 25.6113 10.4 25.1329C10.4 24.6545 10.0109 24.2663 9.53333 24.2663C9.0558 24.2663 8.66667 24.6545 8.66667 25.1329C8.66667 25.6113 9.0558 25.9996 9.53333 25.9996Z" fill="#00B2FF"/>
<path d="M1.73328 12.2926V8.66652C1.73328 8.43599 1.82428 8.21586 1.98722 8.0538L8.05388 1.98723C8.21595 1.8243 8.43695 1.7333 8.66662 1.7333H13.1594C13.5182 0.727121 14.4716 0 15.6 0C17.0334 0 18.2 1.16651 18.2 2.59996C18.2 4.0334 17.0334 5.19991 15.6 5.19991C14.4716 5.19991 13.5182 4.47279 13.1594 3.46661H9.02542L3.46662 9.02532V12.2926C4.47282 12.6514 5.19995 13.6047 5.19995 14.7331C5.19995 16.1665 4.03342 17.333 2.59995 17.333C1.16648 17.333 -4.95911e-05 16.1665 -4.95911e-05 14.7331C-4.95911e-05 13.6047 0.727085 12.6514 1.73328 12.2926ZM15.6 3.46661C16.0775 3.46661 16.4666 3.07835 16.4666 2.59996C16.4666 2.12156 16.0775 1.7333 15.6 1.7333C15.1224 1.7333 14.7333 2.12156 14.7333 2.59996C14.7333 3.07835 15.1224 3.46661 15.6 3.46661ZM2.59995 15.5997C3.07748 15.5997 3.46662 15.2115 3.46662 14.7331C3.46662 14.2547 3.07748 13.8664 2.59995 13.8664C2.12242 13.8664 1.73328 14.2547 1.73328 14.7331C1.73328 15.2115 2.12242 15.5997 2.59995 15.5997Z" fill="#00B2FF"/>
<path d="M13.8658 46.9595V34.5066C12.8604 34.1478 12.1333 33.1945 12.1333 32.0661C12.1333 30.6327 13.2998 29.4661 14.7333 29.4661C15.8617 29.4661 16.815 30.1933 17.1738 31.1995H26.1594C26.5182 30.1933 27.4716 29.4661 28.6 29.4661C29.7284 29.4661 30.6817 30.1933 31.0405 31.1995H36.0412L39.2608 27.9798C39.0979 27.641 39 27.2666 39 26.8662C39 25.4327 40.1665 24.2662 41.6 24.2662C43.0334 24.2662 44.2 25.4327 44.2 26.8662C44.2 28.2996 43.0334 29.4661 41.6 29.4661C41.1996 29.4661 40.8252 29.3682 40.4863 29.2053L37.0127 32.6788C36.8506 32.8418 36.6296 32.9328 36.4 32.9328H31.0405C30.6817 33.9389 29.7284 34.6661 28.6 34.6661C27.4716 34.6661 26.5182 33.9389 26.1594 32.9328H17.173C16.9112 33.6668 16.3332 34.2449 15.5991 34.5066V46.9595C16.6053 47.3183 17.3324 48.2716 17.3324 49.4C17.3324 50.8335 16.1659 52 14.7324 52C13.299 52 12.1324 50.8335 12.1324 49.4C12.1324 48.2716 12.8596 47.3183 13.8658 46.9595ZM41.6 27.7328C42.0775 27.7328 42.4666 27.3446 42.4666 26.8662C42.4666 26.3878 42.0775 25.9995 41.6 25.9995C41.1224 25.9995 40.7333 26.3878 40.7333 26.8662C40.7333 27.3446 41.1224 27.7328 41.6 27.7328ZM28.6 32.9328C29.0775 32.9328 29.4666 32.5445 29.4666 32.0661C29.4666 31.5877 29.0775 31.1995 28.6 31.1995C28.1224 31.1995 27.7333 31.5877 27.7333 32.0661C27.7333 32.5445 28.1224 32.9328 28.6 32.9328ZM14.7333 50.2658C15.2108 50.2658 15.6 49.8775 15.6 49.3991C15.6 48.9208 15.2108 48.5325 14.7333 48.5325C14.2558 48.5325 13.8666 48.9208 13.8666 49.3991C13.8666 49.8775 14.2558 50.2658 14.7333 50.2658ZM14.7333 32.9328C15.2108 32.9328 15.6 32.5445 15.6 32.0661C15.6 31.5877 15.2108 31.1995 14.7333 31.1995C14.2558 31.1995 13.8666 31.5877 13.8666 32.0661C13.8666 32.5445 14.2558 32.9328 14.7333 32.9328Z" fill="#00B2FF"/>
<path d="M18.2 17.4925V14.7331C18.2 14.5026 18.291 14.2824 18.4539 14.1204L28.8609 3.7136C28.6979 3.37474 28.6 3.00035 28.6 2.59996C28.6 1.16651 29.7665 0 31.2 0C32.3284 0 33.2817 0.727121 33.6405 1.7333H37.2667C37.7451 1.7333 38.1333 2.1207 38.1333 2.59996V4.84112L41.353 8.06073C41.6919 7.8978 42.0663 7.79987 42.4667 7.79987C43.9001 7.79987 45.0667 8.96638 45.0667 10.3998C45.0667 11.8333 43.9001 12.9998 42.4667 12.9998C41.0332 12.9998 39.8667 11.8333 39.8667 10.3998C39.8667 9.99943 39.9646 9.62504 40.1275 9.28618L36.6539 5.81264C36.491 5.65057 36.4 5.43044 36.4 5.19991V3.46661H33.6405C33.2817 4.47279 32.3284 5.19991 31.2 5.19991C30.7996 5.19991 30.4252 5.10198 30.0863 4.93905L19.9333 15.0919V17.4925C20.9395 17.8513 21.6667 18.8046 21.6667 19.933C21.6667 21.3664 20.5001 22.533 19.0667 22.533C17.6332 22.533 16.4667 21.3664 16.4667 19.933C16.4667 18.8046 17.1938 17.8513 18.2 17.4925ZM42.4667 11.2665C42.9442 11.2665 43.3333 10.8782 43.3333 10.3998C43.3333 9.92143 42.9442 9.53317 42.4667 9.53317C41.9891 9.53317 41.6 9.92143 41.6 10.3998C41.6 10.8782 41.9891 11.2665 42.4667 11.2665ZM31.2 3.46661C31.6775 3.46661 32.0667 3.07835 32.0667 2.59996C32.0667 2.12156 31.6775 1.7333 31.2 1.7333C30.7225 1.7333 30.3333 2.12156 30.3333 2.59996C30.3333 3.07835 30.7225 3.46661 31.2 3.46661ZM19.0667 20.7997C19.5442 20.7997 19.9333 20.4114 19.9333 19.933C19.9333 19.4546 19.5442 19.0663 19.0667 19.0663C18.5891 19.0663 18.2 19.4546 18.2 19.933C18.2 20.4114 18.5891 20.7997 19.0667 20.7997Z" fill="#00B2FF"/>
<path d="M20.8 24.2663C21.9284 24.2663 22.8817 24.9934 23.2405 25.9996H33.4412L38.3873 21.0536C38.5493 20.8906 38.7703 20.7997 39 20.7997H48.1745L50.2667 18.7076V11.6253L43.5803 4.93905C43.2415 5.10198 42.8671 5.19991 42.4667 5.19991C41.0332 5.19991 39.8667 4.0334 39.8667 2.59996C39.8667 1.16651 41.0332 0 42.4667 0C43.9001 0 45.0667 1.16651 45.0667 2.59996C45.0667 3.00035 44.9687 3.37474 44.8058 3.7136L51.7461 10.6538C51.909 10.8158 52 11.0359 52 11.2665V19.0663C52 19.2969 51.909 19.517 51.7461 19.6791L49.1461 22.279C48.984 22.442 48.763 22.533 48.5333 22.533H39.3588L34.4127 27.4789C34.2507 27.6419 34.0297 27.7329 33.8 27.7329H23.2405C22.8817 28.7391 21.9284 29.4662 20.8 29.4662C19.3665 29.4662 18.2 28.2997 18.2 26.8662C18.2 25.4328 19.3665 24.2663 20.8 24.2663ZM42.4667 1.7333C41.9891 1.7333 41.6 2.12156 41.6 2.59996C41.6 3.07835 41.9891 3.46661 42.4667 3.46661C42.9442 3.46661 43.3333 3.07835 43.3333 2.59996C43.3333 2.12156 42.9442 1.7333 42.4667 1.7333ZM20.8 27.7329C21.2775 27.7329 21.6667 27.3446 21.6667 26.8662C21.6667 26.3878 21.2775 25.9996 20.8 25.9996C20.3225 25.9996 19.9333 26.3878 19.9333 26.8662C19.9333 27.3446 20.3225 27.7329 20.8 27.7329Z" fill="#00B2FF"/>
<path d="M2.59997 20.7997C3.00037 20.7997 3.37477 20.8976 3.71363 21.0606L6.9333 17.841V12.8404C5.9271 12.4816 5.19997 11.5283 5.19997 10.3999C5.19997 8.96644 6.3665 7.79993 7.79997 7.79993C9.23343 7.79993 10.4 8.96644 10.4 10.3999C10.4 11.5283 9.67283 12.4816 8.66663 12.8404V18.1998C8.66663 18.4303 8.57563 18.6504 8.4127 18.8125L4.9391 22.286C5.10204 22.6249 5.19997 22.9993 5.19997 23.3997C5.19997 24.528 4.47283 25.4814 3.46663 25.8402V26.5075L10.146 33.1868C10.309 33.3488 10.4 33.569 10.4 33.7995V34.8256C11.4062 35.1844 12.1333 36.1377 12.1333 37.2661C12.1333 38.3945 11.4062 39.3478 10.4 39.7066V41.7597C11.4062 42.1185 12.1333 43.0718 12.1333 44.2002C12.1333 45.6336 10.9668 46.8001 9.5333 46.8001C8.09983 46.8001 6.9333 45.6336 6.9333 44.2002C6.9333 43.0718 7.66043 42.1185 8.66663 41.7597V39.7066C7.66043 39.3478 6.9333 38.3945 6.9333 37.2661C6.9333 36.1377 7.66043 35.1844 8.66663 34.8256V34.1583L1.98723 27.479C1.8243 27.3169 1.7333 27.0968 1.7333 26.8663V25.8402C0.7271 25.4814 -3.24249e-05 24.528 -3.24249e-05 23.3997C-3.24249e-05 21.9662 1.1665 20.7997 2.59997 20.7997ZM7.79997 11.2665C8.2775 11.2665 8.66663 10.8783 8.66663 10.3999C8.66663 9.92149 8.2775 9.53323 7.79997 9.53323C7.32243 9.53323 6.9333 9.92149 6.9333 10.3999C6.9333 10.8783 7.32243 11.2665 7.79997 11.2665ZM9.5333 45.066C10.0108 45.066 10.4 44.6777 10.4 44.1993C10.4 43.7209 10.0108 43.3327 9.5333 43.3327C9.05577 43.3327 8.66663 43.7209 8.66663 44.1993C8.66663 44.6777 9.05577 45.066 9.5333 45.066ZM9.5333 38.1328C10.0108 38.1328 10.4 37.7445 10.4 37.2661C10.4 36.7877 10.0108 36.3995 9.5333 36.3995C9.05577 36.3995 8.66663 36.7877 8.66663 37.2661C8.66663 37.7445 9.05577 38.1328 9.5333 38.1328ZM2.59997 24.2663C3.0775 24.2663 3.46663 23.8781 3.46663 23.3997C3.46663 22.9213 3.0775 22.533 2.59997 22.533C2.12243 22.533 1.7333 22.9213 1.7333 23.3997C1.7333 23.8781 2.12243 24.2663 2.59997 24.2663Z" fill="#00B2FF"/>
<path d="M768.681 19H754.323C753.042 19 752 20.0087 752 21.2496V30.7504C752 31.9913 753.042 33 754.323 33H768.677C769.958 33 771 31.9913 771 30.7504V21.2534C771.004 20.0125 769.962 19 768.681 19ZM769.942 30.7504C769.942 31.4241 769.376 31.9723 768.681 31.9723H754.323C753.628 31.9723 753.061 31.4241 753.061 30.7504V21.2534C753.061 20.5797 753.628 20.0315 754.323 20.0315H768.677C769.372 20.0315 769.939 20.5797 769.939 21.2534V30.7504H769.942Z" fill="#00B2FF"/>
<path d="M763.983 25.882L768.63 21.8471C768.846 21.6568 768.865 21.3333 768.669 21.1201C768.472 20.9108 768.138 20.8917 767.918 21.0821L761.51 26.6508L760.26 25.5698C760.256 25.566 760.252 25.5622 760.252 25.5584C760.224 25.5318 760.197 25.5089 760.165 25.4861L755.078 21.0783C754.858 20.8879 754.524 20.907 754.327 21.1201C754.131 21.3333 754.151 21.6568 754.371 21.8471L759.073 25.9162L754.39 30.1604C754.178 30.3545 754.166 30.678 754.367 30.8874C754.473 30.994 754.614 31.0511 754.756 31.0511C754.886 31.0511 755.015 31.0054 755.118 30.914L759.871 26.609L761.16 27.7243C761.262 27.8118 761.388 27.8537 761.514 27.8537C761.64 27.8537 761.769 27.808 761.868 27.7204L763.193 26.5709L767.918 30.9178C768.02 31.013 768.154 31.0587 768.284 31.0587C768.425 31.0587 768.563 31.0054 768.669 30.8988C768.869 30.6933 768.861 30.3659 768.649 30.1718L763.983 25.882Z" fill="#00B2FF"/>
<path d="M989.233 28.1503C988.864 27.7666 988.419 27.5615 987.947 27.5615C987.479 27.5615 987.03 27.7628 986.646 28.1465L985.444 29.3432C985.345 29.2901 985.246 29.2407 985.151 29.1913C985.014 29.1229 984.885 29.0583 984.774 28.9899C983.648 28.2757 982.625 27.3449 981.643 26.1407C981.168 25.5404 980.848 25.0351 980.616 24.5223C980.928 24.2373 981.217 23.941 981.499 23.6561C981.605 23.5497 981.712 23.4396 981.818 23.3332C982.617 22.5354 982.617 21.502 981.818 20.7043L980.78 19.6671C980.662 19.5494 980.54 19.4278 980.426 19.3062C980.197 19.0707 979.958 18.8275 979.71 18.5996C979.341 18.2349 978.9 18.0411 978.436 18.0411C977.972 18.0411 977.523 18.2349 977.142 18.5996C977.139 18.6034 977.139 18.6034 977.135 18.6072L975.841 19.9103C975.354 20.3965 975.077 20.9892 975.016 21.6768C974.924 22.7861 975.252 23.8195 975.503 24.4957C976.119 26.1559 977.04 27.6945 978.413 29.3432C980.08 31.3301 982.085 32.8991 984.375 34.0046C985.25 34.4187 986.418 34.9088 987.723 34.9924C987.803 34.9962 987.886 35 987.963 35C988.841 35 989.579 34.6847 990.158 34.0578C990.162 34.0502 990.169 34.0464 990.173 34.0388C990.371 33.7995 990.599 33.5829 990.839 33.3512C991.002 33.1954 991.17 33.0321 991.333 32.8611C991.71 32.4698 991.908 32.014 991.908 31.5467C991.908 31.0756 991.706 30.6235 991.322 30.2436L989.233 28.1503ZM990.595 32.1507C990.591 32.1507 990.591 32.1545 990.595 32.1507C990.447 32.3103 990.295 32.4546 990.131 32.6142C989.884 32.8497 989.633 33.0967 989.397 33.374C989.013 33.7843 988.56 33.978 987.966 33.978C987.909 33.978 987.848 33.978 987.791 33.9742C986.661 33.9021 985.611 33.4614 984.824 33.0853C982.67 32.0443 980.78 30.5665 979.208 28.6936C977.911 27.1322 977.043 25.6886 976.469 24.1386C976.115 23.1926 975.986 22.4556 976.043 21.7604C976.081 21.3159 976.252 20.9474 976.568 20.6321L977.865 19.3366C978.052 19.1618 978.25 19.0669 978.444 19.0669C978.683 19.0669 978.877 19.2112 978.999 19.3328C979.003 19.3366 979.007 19.3404 979.01 19.3442C979.243 19.5607 979.463 19.7849 979.695 20.0242C979.813 20.1458 979.935 20.2674 980.057 20.3927L981.095 21.4299C981.499 21.8326 981.499 22.2049 981.095 22.6076C980.985 22.7177 980.878 22.8279 980.768 22.9343C980.449 23.261 980.144 23.5649 979.813 23.8612C979.806 23.8688 979.798 23.8726 979.794 23.8802C979.467 24.207 979.528 24.5261 979.596 24.7426C979.6 24.754 979.604 24.7654 979.608 24.7768C979.878 25.4302 980.258 26.0457 980.837 26.7789L980.84 26.7827C981.89 28.0744 982.998 29.0811 984.219 29.8523C984.375 29.9511 984.535 30.0309 984.687 30.1068C984.824 30.1752 984.953 30.2398 985.063 30.3082C985.079 30.3158 985.094 30.3272 985.109 30.3348C985.238 30.3994 985.36 30.4298 985.486 30.4298C985.802 30.4298 985.999 30.2322 986.064 30.1676L987.365 28.8684C987.495 28.7392 987.7 28.5834 987.94 28.5834C988.176 28.5834 988.37 28.7316 988.488 28.8608C988.491 28.8646 988.491 28.8646 988.495 28.8684L990.591 30.9616C990.983 31.3491 990.983 31.748 990.595 32.1507Z" fill="#00B2FF"/>
<path d="M984.728 21.2817C985.725 21.4488 986.631 21.9199 987.354 22.6417C988.076 23.3636 988.544 24.2677 988.716 25.2631C988.757 25.5138 988.974 25.6886 989.222 25.6886C989.252 25.6886 989.279 25.6848 989.309 25.681C989.591 25.6354 989.777 25.3694 989.731 25.0883C989.526 23.884 988.955 22.7861 988.084 21.9161C987.213 21.0461 986.113 20.4763 984.907 20.2711C984.626 20.2256 984.363 20.4117 984.314 20.689C984.264 20.9664 984.447 21.2361 984.728 21.2817Z" fill="#00B2FF"/>
<path d="M992.992 24.9402C992.654 22.9571 991.718 21.1526 990.279 19.7165C988.841 18.2805 987.034 17.3459 985.048 17.0078C984.771 16.9584 984.508 17.1484 984.459 17.4257C984.413 17.7068 984.599 17.969 984.881 18.0184C986.654 18.3185 988.271 19.1581 989.557 20.4383C990.843 21.7224 991.68 23.337 991.98 25.1073C992.022 25.3581 992.239 25.5328 992.486 25.5328C992.517 25.5328 992.543 25.529 992.574 25.5252C992.851 25.4834 993.042 25.2175 992.992 24.9402Z" fill="#00B2FF"/>
</svg>
